<svg version="1.1" xmlns="http://www.w3.org/2000/svg" xmlns:xlink="http://www.w3.org/1999/xlink" width="50.19895" height="104.10385" viewBox="0,0,50.19895,104.10385"><g transform="translate(-246.5,-93.89615)"><g stroke="none" stroke-miterlimit="10"><path d="M255.0445,127.50785v-31.50785h32.04188v31.50785z" fill="#26b700" stroke-width="0"/><path d="M246.5,165.42408v-38.45026h50.19895v38.45026z" fill="#26b700" stroke-width="0"/><path d="M248.09666,127.53897v-33.64282h45.34468v33.64283z" fill="#000000" stroke-width="NaN"/><path d="M255.0445,198v-100.93194h31.50785v100.93194z" fill="#26b700" stroke-width="0"/><path d="M251.31275,127.70524v-6.50477h38.5186v6.50477z" fill="#000000" stroke-width="0"/><path d="M251.80033,99.13421v-3.65006h38.03102v3.65006z" fill="#000000" stroke-width="0"/><path d="M266.42765,134.85824c-0.49319,0 -0.49319,-0.49319 -0.49319,-0.49319v-0.01682c0,-1.85804 -0.38753,-4.23338 0.05743,-6.03883c0.1434,-0.58186 0.4394,-1.14639 0.43015,-1.74559c0,0 0,-0.49319 0.49319,-0.49319c0.49319,0 0.49319,0.49319 0.49319,0.49319c-0.00831,0.68001 -0.28892,1.32945 -0.46029,1.98756c-0.44059,1.6919 -0.02728,4.04575 -0.02728,5.79686v0.01682c0,0 0,0.49319 -0.49319,0.49319z" fill="#000000" stroke-width="0.5"/><path d="M278.61989,136.32097c-0.49319,0.00281 -0.49599,-0.49037 -0.49599,-0.49037l-0.00059,-0.10308c-0.00639,-1.15092 -0.23934,-1.69286 -0.47464,-2.75317c-0.42264,-1.90449 0.48049,-3.90127 -0.44787,-5.70239c0,0 -0.22056,-0.44112 0.22056,-0.66169c0.44112,-0.22056 0.66169,0.22056 0.66169,0.22056c0.9625,1.97388 0.05205,3.90432 0.52729,5.9241c0.25434,1.08095 0.49247,1.79134 0.49933,2.96696l0.00059,0.10308c0,0 0.00281,0.49319 -0.49037,0.496z" fill="#000000" stroke-width="0.5"/></g></g></svg>