<svg version="1.1" xmlns="http://www.w3.org/2000/svg" xmlns:xlink="http://www.w3.org/1999/xlink" width="727.21471" height="436.42642" viewBox="0,0,727.21471,436.42642"><g transform="translate(83.67731,38.30986)"><g stroke="none" stroke-miterlimit="10"><path d="M-3.56769,385.11357v-423.42342h646.57658v423.42342z" fill="#167dff" stroke-width="0"/><path d="M-83.6773,103.82228c0,-1.38071 1.11929,-2.5 2.5,-2.5c1.38071,0 2.5,1.11929 2.5,2.5c0,1.38071 -1.11929,2.5 -2.5,2.5c-1.38071,0 -2.5,-1.11929 -2.5,-2.5z" fill="#ffffff" stroke-width="0.5"/><path d="M107.01339,36.25471c0,-1.38071 1.11929,-2.5 2.5,-2.5c1.38071,0 2.5,1.11929 2.5,2.5c0,1.38071 -1.11929,2.5 -2.5,2.5c-1.38071,0 -2.5,-1.11929 -2.5,-2.5z" fill="#ffffff" stroke-width="0.5"/><path d="M143.04943,43.76222c0,-1.38071 1.11929,-2.5 2.5,-2.5c1.38071,0 2.5,1.11929 2.5,2.5c0,1.38071 -1.11929,2.5 -2.5,2.5c-1.38071,0 -2.5,-1.11929 -2.5,-2.5z" fill="#ffffff" stroke-width="0.5"/><path d="M128.03441,78.29675c0,-1.38071 1.11929,-2.5 2.5,-2.5c1.38071,0 2.5,1.11929 2.5,2.5c0,1.38071 -1.11929,2.5 -2.5,2.5c-1.38071,0 -2.5,-1.11929 -2.5,-2.5z" fill="#ffffff" stroke-width="0.5"/><path d="M228.63501,36.25471c0,-1.38071 1.11929,-2.5 2.5,-2.5c1.38071,0 2.5,1.11929 2.5,2.5c0,1.38071 -1.11929,2.5 -2.5,2.5c-1.38071,0 -2.5,-1.11929 -2.5,-2.5z" fill="#ffffff" stroke-width="0.5"/><path d="M252.65904,76.79524c0,-1.38071 1.11929,-2.5 2.5,-2.5c1.38071,0 2.5,1.11929 2.5,2.5c0,1.38071 -1.11929,2.5 -2.5,2.5c-1.38071,0 -2.5,-1.11929 -2.5,-2.5z" fill="#ffffff" stroke-width="0.5"/><path d="M180.58696,123.3418c0,-1.38071 1.11929,-2.5 2.5,-2.5c1.38071,0 2.5,1.11929 2.5,2.5c0,1.38071 -1.11929,2.5 -2.5,2.5c-1.38071,0 -2.5,-1.11929 -2.5,-2.5z" fill="#ffffff" stroke-width="0.5"/><path d="M131.03741,220.9394c0,-1.38071 1.11929,-2.5 2.5,-2.5c1.38071,0 2.5,1.11929 2.5,2.5c0,1.38071 -1.11929,2.5 -2.5,2.5c-1.38071,0 -2.5,-1.11929 -2.5,-2.5z" fill="#ffffff" stroke-width="0.5"/><path d="M234.64102,246.46492c0,-1.38071 1.11929,-2.5 2.5,-2.5c1.38071,0 2.5,1.11929 2.5,2.5c0,1.38071 -1.11929,2.5 -2.5,2.5c-1.38071,0 -2.5,-1.11929 -2.5,-2.5z" fill="#ffffff" stroke-width="0.5"/><path d="M309.71609,199.91837c0,-1.38071 1.11929,-2.5 2.5,-2.5c1.38071,0 2.5,1.11929 2.5,2.5c0,1.38071 -1.11929,2.5 -2.5,2.5c-1.38071,0 -2.5,-1.11929 -2.5,-2.5z" fill="#ffffff" stroke-width="0.5"/><path d="M375.78216,120.33879c0,-1.38071 1.11929,-2.5 2.5,-2.5c1.38071,0 2.5,1.11929 2.5,2.5c0,1.38071 -1.11929,2.5 -2.5,2.5c-1.38071,0 -2.5,-1.11929 -2.5,-2.5z" fill="#ffffff" stroke-width="0.5"/><path d="M477.88426,132.35081c0,-1.38071 1.11929,-2.5 2.5,-2.5c1.38071,0 2.5,1.11929 2.5,2.5c0,1.38071 -1.11929,2.5 -2.5,2.5c-1.38071,0 -2.5,-1.11929 -2.5,-2.5z" fill="#ffffff" stroke-width="0.5"/><path d="M476.38276,183.40186c0,-1.38071 1.11929,-2.5 2.5,-2.5c1.38071,0 2.5,1.11929 2.5,2.5c0,1.38071 -1.11929,2.5 -2.5,2.5c-1.38071,0 -2.5,-1.11929 -2.5,-2.5z" fill="#ffffff" stroke-width="0.5"/><path d="M450.85723,267.48594c0,-1.38071 1.11929,-2.5 2.5,-2.5c1.38071,0 2.5,1.11929 2.5,2.5c0,1.38071 -1.11929,2.5 -2.5,2.5c-1.38071,0 -2.5,-1.11929 -2.5,-2.5z" fill="#ffffff" stroke-width="0.5"/><path d="M371.27765,273.49195c0,-1.38071 1.11929,-2.5 2.5,-2.5c1.38071,0 2.5,1.11929 2.5,2.5c0,1.38071 -1.11929,2.5 -2.5,2.5c-1.38071,0 -2.5,-1.11929 -2.5,-2.5z" fill="#ffffff" stroke-width="0.5"/><path d="M342.74913,243.46192c0,-1.38071 1.11929,-2.5 2.5,-2.5c1.38071,0 2.5,1.11929 2.5,2.5c0,1.38071 -1.11929,2.5 -2.5,2.5c-1.38071,0 -2.5,-1.11929 -2.5,-2.5z" fill="#ffffff" stroke-width="0.5"/><path d="M378.78516,172.89135c0,-1.38071 1.11929,-2.5 2.5,-2.5c1.38071,0 2.5,1.11929 2.5,2.5c0,1.38071 -1.11929,2.5 -2.5,2.5c-1.38071,0 -2.5,-1.11929 -2.5,-2.5z" fill="#ffffff" stroke-width="0.5"/><path d="M429.83621,75.29375c0,-1.38071 1.11929,-2.5 2.5,-2.5c1.38071,0 2.5,1.11929 2.5,2.5c0,1.38071 -1.11929,2.5 -2.5,2.5c-1.38071,0 -2.5,-1.11929 -2.5,-2.5z" fill="#ffffff" stroke-width="0.5"/><path d="M371.27765,37.75621c0,-1.38071 1.11929,-2.5 2.5,-2.5c1.38071,0 2.5,1.11929 2.5,2.5c0,1.38071 -1.11929,2.5 -2.5,2.5c-1.38071,0 -2.5,-1.11929 -2.5,-2.5z" fill="#ffffff" stroke-width="0.5"/><path d="M221.1275,10.72919c0,-1.38071 1.11929,-2.5 2.5,-2.5c1.38071,0 2.5,1.11929 2.5,2.5c0,1.38071 -1.11929,2.5 -2.5,2.5c-1.38071,0 -2.5,-1.11929 -2.5,-2.5z" fill="#ffffff" stroke-width="0.5"/><path d="M212.1185,57.27573c0,-1.38071 1.11929,-2.5 2.5,-2.5c1.38071,0 2.5,1.11929 2.5,2.5c0,1.38071 -1.11929,2.5 -2.5,2.5c-1.38071,0 -2.5,-1.11929 -2.5,-2.5z" fill="#ffffff" stroke-width="0.5"/><path d="M165.57195,297.51597c0,-1.38071 1.11929,-2.5 2.5,-2.5c1.38071,0 2.5,1.11929 2.5,2.5c0,1.38071 -1.11929,2.5 -2.5,2.5c-1.38071,0 -2.5,-1.11929 -2.5,-2.5z" fill="#ffffff" stroke-width="0.5"/><path d="M177.58396,297.51597c0,-1.38071 1.11929,-2.5 2.5,-2.5c1.38071,0 2.5,1.11929 2.5,2.5c0,1.38071 -1.11929,2.5 -2.5,2.5c-1.38071,0 -2.5,-1.11929 -2.5,-2.5z" fill="#ffffff" stroke-width="0.5"/><path d="M236.14252,303.52198c0,-1.38071 1.11929,-2.5 2.5,-2.5c1.38071,0 2.5,1.11929 2.5,2.5c0,1.38071 -1.11929,2.5 -2.5,2.5c-1.38071,0 -2.5,-1.11929 -2.5,-2.5z" fill="#ffffff" stroke-width="0.5"/><path d="M326.2326,305.02348c0,-1.38071 1.11929,-2.5 2.5,-2.5c1.38071,0 2.5,1.11929 2.5,2.5c0,1.38071 -1.11929,2.5 -2.5,2.5c-1.38071,0 -2.5,-1.11929 -2.5,-2.5z" fill="#ffffff" stroke-width="0.5"/><path d="M447.85423,305.02348c0,-1.38071 1.11929,-2.5 2.5,-2.5c1.38071,0 2.5,1.11929 2.5,2.5c0,1.38071 -1.11929,2.5 -2.5,2.5c-1.38071,0 -2.5,-1.11929 -2.5,-2.5z" fill="#ffffff" stroke-width="0.5"/><path d="M498.90528,273.49195c0,-1.38071 1.11929,-2.5 2.5,-2.5c1.38071,0 2.5,1.11929 2.5,2.5c0,1.38071 -1.11929,2.5 -2.5,2.5c-1.38071,0 -2.5,-1.11929 -2.5,-2.5z" fill="#ffffff" stroke-width="0.5"/><path d="M513.9203,136.8553c0,-1.38071 1.11929,-2.5 2.5,-2.5c1.38071,0 2.5,1.11929 2.5,2.5c0,1.38071 -1.11929,2.5 -2.5,2.5c-1.38071,0 -2.5,-1.11929 -2.5,-2.5z" fill="#ffffff" stroke-width="0.5"/><path d="M303.71008,37.75621c0,-1.38071 1.11929,-2.5 2.5,-2.5c1.38071,0 2.5,1.11929 2.5,2.5c0,1.38071 -1.11929,2.5 -2.5,2.5c-1.38071,0 -2.5,-1.11929 -2.5,-2.5z" fill="#ffffff" stroke-width="0.5"/><path d="M467.37375,40.75921c0,-1.38071 1.11929,-2.5 2.5,-2.5c1.38071,0 2.5,1.11929 2.5,2.5c0,1.38071 -1.11929,2.5 -2.5,2.5c-1.38071,0 -2.5,-1.11929 -2.5,-2.5z" fill="#ffffff" stroke-width="0.5"/><path d="M539.44582,30.2487c0,-1.38071 1.11929,-2.5 2.5,-2.5c1.38071,0 2.5,1.11929 2.5,2.5c0,1.38071 -1.11929,2.5 -2.5,2.5c-1.38071,0 -2.5,-1.11929 -2.5,-2.5z" fill="#ffffff" stroke-width="0.5"/><path d="M537.94431,97.81627c0,-1.38071 1.11929,-2.5 2.5,-2.5c1.38071,0 2.5,1.11929 2.5,2.5c0,1.38071 -1.11929,2.5 -2.5,2.5c-1.38071,0 -2.5,-1.11929 -2.5,-2.5z" fill="#ffffff" stroke-width="0.5"/><path d="M276.68306,147.36582c0,-1.38071 1.11929,-2.5 2.5,-2.5c1.38071,0 2.5,1.11929 2.5,2.5c0,1.38071 -1.11929,2.5 -2.5,2.5c-1.38071,0 -2.5,-1.11929 -2.5,-2.5z" fill="#ffffff" stroke-width="0.5"/><path d="M222.629,157.87633c0,-1.38071 1.11929,-2.5 2.5,-2.5c1.38071,0 2.5,1.11929 2.5,2.5c0,1.38071 -1.11929,2.5 -2.5,2.5c-1.38071,0 -2.5,-1.11929 -2.5,-2.5z" fill="#ffffff" stroke-width="0.5"/><path d="M117.5239,148.86732c0,-1.38071 1.11929,-2.5 2.5,-2.5c1.38071,0 2.5,1.11929 2.5,2.5c0,1.38071 -1.11929,2.5 -2.5,2.5c-1.38071,0 -2.5,-1.11929 -2.5,-2.5z" fill="#ffffff" stroke-width="0.5"/><path d="M173.07945,208.92738c0,-1.38071 1.11929,-2.5 2.5,-2.5c1.38071,0 2.5,1.11929 2.5,2.5c0,1.38071 -1.11929,2.5 -2.5,2.5c-1.38071,0 -2.5,-1.11929 -2.5,-2.5z" fill="#ffffff" stroke-width="0.5"/><path d="M191.09747,225.4439c0,-1.38071 1.11929,-2.5 2.5,-2.5c1.38071,0 2.5,1.11929 2.5,2.5c0,1.38071 -1.11929,2.5 -2.5,2.5c-1.38071,0 -2.5,-1.11929 -2.5,-2.5z" fill="#ffffff" stroke-width="0.5"/><path d="M207.61399,223.9424c0,-1.38071 1.11929,-2.5 2.5,-2.5c1.38071,0 2.5,1.11929 2.5,2.5c0,1.38071 -1.11929,2.5 -2.5,2.5c-1.38071,0 -2.5,-1.11929 -2.5,-2.5z" fill="#ffffff" stroke-width="0.5"/><path d="M224.1305,207.42588c0,-1.38071 1.11929,-2.5 2.5,-2.5c1.38071,0 2.5,1.11929 2.5,2.5c0,1.38071 -1.11929,2.5 -2.5,2.5c-1.38071,0 -2.5,-1.11929 -2.5,-2.5z" fill="#ffffff" stroke-width="0.5"/><path d="M218.1245,181.90035c0,-1.38071 1.11929,-2.5 2.5,-2.5c1.38071,0 2.5,1.11929 2.5,2.5c0,1.38071 -1.11929,2.5 -2.5,2.5c-1.38071,0 -2.5,-1.11929 -2.5,-2.5z" fill="#ffffff" stroke-width="0.5"/><path d="M189.59597,169.88834c0,-1.38071 1.11929,-2.5 2.5,-2.5c1.38071,0 2.5,1.11929 2.5,2.5c0,1.38071 -1.11929,2.5 -2.5,2.5c-1.38071,0 -2.5,-1.11929 -2.5,-2.5z" fill="#ffffff" stroke-width="0.5"/><path d="M173.07945,175.89435c0,-1.38071 1.11929,-2.5 2.5,-2.5c1.38071,0 2.5,1.11929 2.5,2.5c0,1.38071 -1.11929,2.5 -2.5,2.5c-1.38071,0 -2.5,-1.11929 -2.5,-2.5z" fill="#ffffff" stroke-width="0.5"/><path d="M165.57195,193.91237c0,-1.38071 1.11929,-2.5 2.5,-2.5c1.38071,0 2.5,1.11929 2.5,2.5c0,1.38071 -1.11929,2.5 -2.5,2.5c-1.38071,0 -2.5,-1.11929 -2.5,-2.5z" fill="#ffffff" stroke-width="0.5"/><path d="M483.89026,60.27873c0,-1.38071 1.11929,-2.5 2.5,-2.5c1.38071,0 2.5,1.11929 2.5,2.5c0,1.38071 -1.11929,2.5 -2.5,2.5c-1.38071,0 -2.5,-1.11929 -2.5,-2.5z" fill="#ffffff" stroke-width="0.5"/><path d="M476.38276,87.30576c0,-1.38071 1.11929,-2.5 2.5,-2.5c1.38071,0 2.5,1.11929 2.5,2.5c0,1.38071 -1.11929,2.5 -2.5,2.5c-1.38071,0 -2.5,-1.11929 -2.5,-2.5z" fill="#ffffff" stroke-width="0.5"/><path d="M548.45483,64.78324c0,-1.38071 1.11929,-2.5 2.5,-2.5c1.38071,0 2.5,1.11929 2.5,2.5c0,1.38071 -1.11929,2.5 -2.5,2.5c-1.38071,0 -2.5,-1.11929 -2.5,-2.5z" fill="#ffffff" stroke-width="0.5"/><path d="M506.41279,34.75321c0,-1.38071 1.11929,-2.5 2.5,-2.5c1.38071,0 2.5,1.11929 2.5,2.5c0,1.38071 -1.11929,2.5 -2.5,2.5c-1.38071,0 -2.5,-1.11929 -2.5,-2.5z" fill="#ffffff" stroke-width="0.5"/><path d="M302.20858,79.79824c0,-1.38071 1.11929,-2.5 2.5,-2.5c1.38071,0 2.5,1.11929 2.5,2.5c0,1.38071 -1.11929,2.5 -2.5,2.5c-1.38071,0 -2.5,-1.11929 -2.5,-2.5z" fill="#ffffff" stroke-width="0.5"/><path d="M338.24462,105.32378c0,-1.38071 1.11929,-2.5 2.5,-2.5c1.38071,0 2.5,1.11929 2.5,2.5c0,1.38071 -1.11929,2.5 -2.5,2.5c-1.38071,0 -2.5,-1.11929 -2.5,-2.5z" fill="#ffffff" stroke-width="0.5"/><path d="M399.80618,66.28474c0,-1.38071 1.11929,-2.5 2.5,-2.5c1.38071,0 2.5,1.11929 2.5,2.5c0,1.38071 -1.11929,2.5 -2.5,2.5c-1.38071,0 -2.5,-1.11929 -2.5,-2.5z" fill="#ffffff" stroke-width="0.5"/><path d="M353.25963,57.27573c0,-1.38071 1.11929,-2.5 2.5,-2.5c1.38071,0 2.5,1.11929 2.5,2.5c0,1.38071 -1.11929,2.5 -2.5,2.5c-1.38071,0 -2.5,-1.11929 -2.5,-2.5z" fill="#ffffff" stroke-width="0.5"/><path d="M329.23561,156.37482c0,-1.38071 1.11929,-2.5 2.5,-2.5c1.38071,0 2.5,1.11929 2.5,2.5c0,1.38071 -1.11929,2.5 -2.5,2.5c-1.38071,0 -2.5,-1.11929 -2.5,-2.5z" fill="#ffffff" stroke-width="0.5"/><path d="M458.36474,214.93339c0,-1.38071 1.11929,-2.5 2.5,-2.5c1.38071,0 2.5,1.11929 2.5,2.5c0,1.38071 -1.11929,2.5 -2.5,2.5c-1.38071,0 -2.5,-1.11929 -2.5,-2.5z" fill="#ffffff" stroke-width="0.5"/><path d="M482.38876,220.93939c0,-1.38071 1.11929,-2.5 2.5,-2.5c1.38071,0 2.5,1.11929 2.5,2.5c0,1.38071 -1.11929,2.5 -2.5,2.5c-1.38071,0 -2.5,-1.11929 -2.5,-2.5z" fill="#ffffff" stroke-width="0.5"/><path d="M506.41279,228.4469c0,-1.38071 1.11929,-2.5 2.5,-2.5c1.38071,0 2.5,1.11929 2.5,2.5c0,1.38071 -1.11929,2.5 -2.5,2.5c-1.38071,0 -2.5,-1.11929 -2.5,-2.5z" fill="#ffffff" stroke-width="0.5"/><path d="M507.91429,255.47393c0,-1.38071 1.11929,-2.5 2.5,-2.5c1.38071,0 2.5,1.11929 2.5,2.5c0,1.38071 -1.11929,2.5 -2.5,2.5c-1.38071,0 -2.5,-1.11929 -2.5,-2.5z" fill="#ffffff" stroke-width="0.5"/><path d="M489.89627,296.01446c0,-1.38071 1.11929,-2.5 2.5,-2.5c1.38071,0 2.5,1.11929 2.5,2.5c0,1.38071 -1.11929,2.5 -2.5,2.5c-1.38071,0 -2.5,-1.11929 -2.5,-2.5z" fill="#ffffff" stroke-width="0.5"/><path d="M486.89327,317.03549c0,-1.38071 1.11929,-2.5 2.5,-2.5c1.38071,0 2.5,1.11929 2.5,2.5c0,1.38071 -1.11929,2.5 -2.5,2.5c-1.38071,0 -2.5,-1.11929 -2.5,-2.5z" fill="#ffffff" stroke-width="0.5"/><path d="M518.4248,287.00546c0,-1.38071 1.11929,-2.5 2.5,-2.5c1.38071,0 2.5,1.11929 2.5,2.5c0,1.38071 -1.11929,2.5 -2.5,2.5c-1.38071,0 -2.5,-1.11929 -2.5,-2.5z" fill="#ffffff" stroke-width="0.5"/><path d="M480.88726,274.99345c0,-1.38071 1.11929,-2.5 2.5,-2.5c1.38071,0 2.5,1.11929 2.5,2.5c0,1.38071 -1.11929,2.5 -2.5,2.5c-1.38071,0 -2.5,-1.11929 -2.5,-2.5z" fill="#ffffff" stroke-width="0.5"/><path d="M444.85123,243.46192c0,-1.38071 1.11929,-2.5 2.5,-2.5c1.38071,0 2.5,1.11929 2.5,2.5c0,1.38071 -1.11929,2.5 -2.5,2.5c-1.38071,0 -2.5,-1.11929 -2.5,-2.5z" fill="#ffffff" stroke-width="0.5"/><path d="M176.08246,34.75321c0,-1.38071 1.11929,-2.5 2.5,-2.5c1.38071,0 2.5,1.11929 2.5,2.5c0,1.38071 -1.11929,2.5 -2.5,2.5c-1.38071,0 -2.5,-1.11929 -2.5,-2.5z" fill="#ffffff" stroke-width="0.5"/><path d="M194.10047,4.72318c0,-1.38071 1.11929,-2.5 2.5,-2.5c1.38071,0 2.5,1.11929 2.5,2.5c0,1.38071 -1.11929,2.5 -2.5,2.5c-1.38071,0 -2.5,-1.11929 -2.5,-2.5z" fill="#ffffff" stroke-width="0.5"/><path d="M192.59897,52.77122c0,-1.38071 1.11929,-2.5 2.5,-2.5c1.38071,0 2.5,1.11929 2.5,2.5c0,1.38071 -1.11929,2.5 -2.5,2.5c-1.38071,0 -2.5,-1.11929 -2.5,-2.5z" fill="#ffffff" stroke-width="0.5"/><path d="M176.08246,19.73819c0,-1.38071 1.11929,-2.5 2.5,-2.5c1.38071,0 2.5,1.11929 2.5,2.5c0,1.38071 -1.11929,2.5 -2.5,2.5c-1.38071,0 -2.5,-1.11929 -2.5,-2.5z" fill="#ffffff" stroke-width="0.5"/><path d="M210.61699,73.79224c0,-1.38071 1.11929,-2.5 2.5,-2.5c1.38071,0 2.5,1.11929 2.5,2.5c0,1.38071 -1.11929,2.5 -2.5,2.5c-1.38071,0 -2.5,-1.11929 -2.5,-2.5z" fill="#ffffff" stroke-width="0.5"/><path d="M186.59297,81.29975c0,-1.38071 1.11929,-2.5 2.5,-2.5c1.38071,0 2.5,1.11929 2.5,2.5c0,1.38071 -1.11929,2.5 -2.5,2.5c-1.38071,0 -2.5,-1.11929 -2.5,-2.5z" fill="#ffffff" stroke-width="0.5"/><path d="M167.07345,76.79524c0,-1.38071 1.11929,-2.5 2.5,-2.5c1.38071,0 2.5,1.11929 2.5,2.5c0,1.38071 -1.11929,2.5 -2.5,2.5c-1.38071,0 -2.5,-1.11929 -2.5,-2.5z" fill="#ffffff" stroke-width="0.5"/><path d="M129.53591,306.52498c0,-1.38071 1.11929,-2.5 2.5,-2.5c1.38071,0 2.5,1.11929 2.5,2.5c0,1.38071 -1.11929,2.5 -2.5,2.5c-1.38071,0 -2.5,-1.11929 -2.5,-2.5z" fill="#ffffff" stroke-width="0.5"/><path d="M98.00438,271.99044c0,-1.38071 1.11929,-2.5 2.5,-2.5c1.38071,0 2.5,1.11929 2.5,2.5c0,1.38071 -1.11929,2.5 -2.5,2.5c-1.38071,0 -2.5,-1.11929 -2.5,-2.5z" fill="#ffffff" stroke-width="0.5"/><path d="M98.00438,66.28474c0,-1.38071 1.11929,-2.5 2.5,-2.5c1.38071,0 2.5,1.11929 2.5,2.5c0,1.38071 -1.11929,2.5 -2.5,2.5c-1.38071,0 -2.5,-1.11929 -2.5,-2.5z" fill="#ffffff" stroke-width="0.5"/><path d="M431.33771,22.74119c0,-1.38071 1.11929,-2.5 2.5,-2.5c1.38071,0 2.5,1.11929 2.5,2.5c0,1.38071 -1.11929,2.5 -2.5,2.5c-1.38071,0 -2.5,-1.11929 -2.5,-2.5z" fill="#ffffff" stroke-width="0.5"/><path d="M303.71008,30.2487c0,-1.38071 1.11929,-2.5 2.5,-2.5c1.38071,0 2.5,1.11929 2.5,2.5c0,1.38071 -1.11929,2.5 -2.5,2.5c-1.38071,0 -2.5,-1.11929 -2.5,-2.5z" fill="#ffffff" stroke-width="0.5"/><path d="M276.68306,302.02047c0,-1.38071 1.11929,-2.5 2.5,-2.5c1.38071,0 2.5,1.11929 2.5,2.5c0,1.38071 -1.11929,2.5 -2.5,2.5c-1.38071,0 -2.5,-1.11929 -2.5,-2.5z" fill="#ffffff" stroke-width="0.5"/><path d="M300.70707,267.48594c0,-1.38071 1.11929,-2.5 2.5,-2.5c1.38071,0 2.5,1.11929 2.5,2.5c0,1.38071 -1.11929,2.5 -2.5,2.5c-1.38071,0 -2.5,-1.11929 -2.5,-2.5z" fill="#ffffff" stroke-width="0.5"/><path d="M390.79717,326.0445c0,-1.38071 1.11929,-2.5 2.5,-2.5c1.38071,0 2.5,1.11929 2.5,2.5c0,1.38071 -1.11929,2.5 -2.5,2.5c-1.38071,0 -2.5,-1.11929 -2.5,-2.5z" fill="#ffffff" stroke-width="0.5"/><path d="M233.13951,338.05651c0,-1.38071 1.11929,-2.5 2.5,-2.5c1.38071,0 2.5,1.11929 2.5,2.5c0,1.38071 -1.11929,2.5 -2.5,2.5c-1.38071,0 -2.5,-1.11929 -2.5,-2.5z" fill="#ffffff" stroke-width="0.5"/><path d="M153.55993,333.55201c0,-1.38071 1.11929,-2.5 2.5,-2.5c1.38071,0 2.5,1.11929 2.5,2.5c0,1.38071 -1.11929,2.5 -2.5,2.5c-1.38071,0 -2.5,-1.11929 -2.5,-2.5z" fill="#ffffff" stroke-width="0.5"/><path d="M-14.08121,398.11657v-40.54054h657.61862v40.54054z" fill="#444444" stroke-width="0"/><path d="M46.88085,228.78798c-1.37938,-0.06057 -2.44849,-1.22788 -2.38792,-2.60726c0.06057,-1.37938 1.22788,-2.44849 2.60726,-2.38792c1.37938,0.06057 2.44849,1.22788 2.38792,2.60726c-0.06057,1.37938 -1.22788,2.44849 -2.60726,2.38792z" fill="#ffffff" stroke-width="0.5"/><path d="M55.96196,193.11597c-1.37938,-0.06057 -2.44849,-1.22788 -2.38792,-2.60726c0.06057,-1.37938 1.22788,-2.44849 2.60726,-2.38792c1.37938,0.06057 2.44849,1.22788 2.38792,2.60726c-0.06057,1.37938 -1.22788,2.44849 -2.60726,2.38792z" fill="#ffffff" stroke-width="0.5"/><path d="M52.21613,107.28344c-1.37938,-0.06057 -2.44849,-1.22788 -2.38792,-2.60726c0.06057,-1.37938 1.22788,-2.44849 2.60726,-2.38792c1.37938,0.06057 2.44849,1.22788 2.38792,2.60726c-0.06057,1.37938 -1.22788,2.44849 -2.60726,2.38792z" fill="#ffffff" stroke-width="0.5"/><path d="M26.38585,113.66398c-1.37938,-0.06057 -2.44849,-1.22788 -2.38792,-2.60726c0.06057,-1.37938 1.22788,-2.44849 2.60726,-2.38792c1.37938,0.06057 2.44849,1.22788 2.38792,2.60726c-0.06057,1.37938 -1.22788,2.44849 -2.60726,2.38792z" fill="#ffffff" stroke-width="0.5"/><path d="M72.49237,124.7062c-1.37938,-0.06057 -2.44849,-1.22788 -2.38792,-2.60726c0.06057,-1.37938 1.22788,-2.44849 2.60726,-2.38792c1.37938,0.06057 2.44849,1.22788 2.38792,2.60726c-0.06057,1.37938 -1.22788,2.44849 -2.60726,2.38792z" fill="#ffffff" stroke-width="0.5"/><path d="M57.00957,32.34651c-1.37938,-0.06057 -2.44849,-1.22788 -2.38792,-2.60726c0.06057,-1.37938 1.22788,-2.44849 2.60726,-2.38792c1.37938,0.06057 2.44849,1.22788 2.38792,2.60726c-0.06057,1.37938 -1.22788,2.44849 -2.60726,2.38792z" fill="#ffffff" stroke-width="0.5"/><path d="M48.41071,159.71953c-1.37938,-0.06057 -2.44849,-1.22788 -2.38792,-2.60726c0.06057,-1.37938 1.22788,-2.44849 2.60726,-2.38792c1.37938,0.06057 2.44849,1.22788 2.38792,2.60726c-0.06057,1.37938 -1.22788,2.44849 -2.60726,2.38792z" fill="#ffffff" stroke-width="0.5"/><path d="M19.2,140.40152c-1.37938,-0.06057 -2.44849,-1.22788 -2.38792,-2.60726c0.06057,-1.37938 1.22788,-2.44849 2.60726,-2.38792c1.37938,0.06057 2.44849,1.22788 2.38792,2.60726c-0.06057,1.37938 -1.22788,2.44849 -2.60726,2.38792z" fill="#ffffff" stroke-width="0.5"/><path d="M67.13592,144.00934c-1.37938,-0.06057 -2.44849,-1.22788 -2.38792,-2.60726c0.06057,-1.37938 1.22788,-2.44849 2.60726,-2.38792c1.37938,0.06057 2.44849,1.22788 2.38792,2.60726c-0.06057,1.37938 -1.22788,2.44849 -2.60726,2.38792z" fill="#ffffff" stroke-width="0.5"/><path d="M33.41015,159.06086c-1.37938,-0.06057 -2.44849,-1.22788 -2.38792,-2.60726c0.06057,-1.37938 1.22788,-2.44849 2.60726,-2.38792c1.37938,0.06057 2.44849,1.22788 2.38792,2.60726c-0.06057,1.37938 -1.22788,2.44849 -2.60726,2.38792z" fill="#ffffff" stroke-width="0.5"/><path d="M76.48677,239.10567c-1.37938,-0.06057 -2.44849,-1.22788 -2.38792,-2.60726c0.06057,-1.37938 1.22788,-2.44849 2.60726,-2.38792c1.37938,0.06057 2.44849,1.22788 2.38792,2.60726c-0.06057,1.37938 -1.22788,2.44849 -2.60726,2.38792z" fill="#ffffff" stroke-width="0.5"/><path d="M49.50929,32.01717c-1.37938,-0.06057 -2.44849,-1.22788 -2.38792,-2.60726c0.06057,-1.37938 1.22788,-2.44849 2.60726,-2.38792c1.37938,0.06057 2.44849,1.22788 2.38792,2.60726c-0.06057,1.37938 -1.22788,2.44849 -2.60726,2.38792z" fill="#ffffff" stroke-width="0.5"/><path d="M592.88086,267.78799c-1.37938,-0.06057 -2.44849,-1.22788 -2.38792,-2.60726c0.06057,-1.37938 1.22789,-2.4485 2.60726,-2.38792c1.37938,0.06057 2.44849,1.22788 2.38792,2.60726c-0.06057,1.37938 -1.22788,2.4485 -2.60726,2.38792z" fill="#ffffff" stroke-width="0.5"/><path d="M601.96196,232.11597c-1.37938,-0.06057 -2.44849,-1.22788 -2.38792,-2.60726c0.06057,-1.37938 1.22789,-2.4485 2.60726,-2.38792c1.37938,0.06057 2.4485,1.22788 2.38792,2.60726c-0.06057,1.37938 -1.22789,2.44849 -2.60726,2.38792z" fill="#ffffff" stroke-width="0.5"/><path d="M598.21614,146.28345c-1.37938,-0.06057 -2.44849,-1.22788 -2.38792,-2.60727c0.06057,-1.37938 1.22789,-2.44849 2.60726,-2.38792c1.37938,0.06057 2.44849,1.22789 2.38792,2.60727c-0.06057,1.37938 -1.22789,2.4485 -2.60726,2.38792z" fill="#ffffff" stroke-width="0.5"/><path d="M572.38585,152.66398c-1.37938,-0.06057 -2.44849,-1.22789 -2.38792,-2.60726c0.06057,-1.37938 1.22789,-2.44849 2.60726,-2.38792c1.37938,0.06057 2.44849,1.22788 2.38792,2.60726c-0.06057,1.37938 -1.22788,2.44849 -2.60726,2.38792z" fill="#ffffff" stroke-width="0.5"/><path d="M618.49238,163.7062c-1.37938,-0.06057 -2.4485,-1.22788 -2.38792,-2.60727c0.06057,-1.37938 1.22789,-2.44849 2.60726,-2.38792c1.37938,0.06057 2.44849,1.22788 2.38792,2.60726c-0.06057,1.37938 -1.22788,2.4485 -2.60726,2.38792z" fill="#ffffff" stroke-width="0.5"/><path d="M603.00958,71.34651c-1.37938,-0.06057 -2.4485,-1.22788 -2.38792,-2.60726c0.06057,-1.37938 1.22788,-2.44849 2.60726,-2.38792c1.37938,0.06057 2.44849,1.22789 2.38792,2.60726c-0.06057,1.37938 -1.22788,2.44849 -2.60726,2.38792z" fill="#ffffff" stroke-width="0.5"/><path d="M594.41071,198.71954c-1.37938,-0.06057 -2.44849,-1.22789 -2.38792,-2.60727c0.06057,-1.37938 1.22788,-2.44849 2.60726,-2.38792c1.37938,0.06057 2.44849,1.22788 2.38792,2.60726c-0.06057,1.37938 -1.22789,2.4485 -2.60726,2.38792z" fill="#ffffff" stroke-width="0.5"/><path d="M565.2,179.40152c-1.37938,-0.06057 -2.44849,-1.22788 -2.38792,-2.60726c0.06057,-1.37938 1.22788,-2.4485 2.60726,-2.38792c1.37938,0.06057 2.44849,1.22789 2.38792,2.60727c-0.06057,1.37938 -1.22789,2.44849 -2.60726,2.38792z" fill="#ffffff" stroke-width="0.5"/><path d="M613.13592,183.00934c-1.37938,-0.06057 -2.44849,-1.22788 -2.38792,-2.60726c0.06057,-1.37938 1.22789,-2.4485 2.60727,-2.38792c1.37938,0.06057 2.44849,1.22789 2.38792,2.60727c-0.06057,1.37938 -1.22789,2.44849 -2.60727,2.38792z" fill="#ffffff" stroke-width="0.5"/><path d="M579.41015,198.06086c-1.37938,-0.06057 -2.4485,-1.22788 -2.38792,-2.60726c0.06057,-1.37938 1.22789,-2.4485 2.60726,-2.38792c1.37938,0.06057 2.4485,1.22788 2.38792,2.60726c-0.06057,1.37938 -1.22788,2.4485 -2.60726,2.38792z" fill="#ffffff" stroke-width="0.5"/><path d="M622.48677,278.10568c-1.37938,-0.06057 -2.44849,-1.22789 -2.38792,-2.60726c0.06057,-1.37938 1.22789,-2.4485 2.60726,-2.38792c1.37938,0.06057 2.44849,1.22788 2.38792,2.60726c-0.06057,1.37938 -1.22788,2.44849 -2.60726,2.38792z" fill="#ffffff" stroke-width="0.5"/><path d="M595.50929,71.01718c-1.37938,-0.06057 -2.44849,-1.22789 -2.38792,-2.60727c0.06057,-1.37938 1.22789,-2.44849 2.60727,-2.38792c1.37938,0.06057 2.44849,1.22789 2.38792,2.60726c-0.06057,1.37938 -1.22789,2.4485 -2.60727,2.38793z" fill="#ffffff" stroke-width="0.5"/></g></g></svg>