<svg version="1.1" xmlns="http://www.w3.org/2000/svg" xmlns:xlink="http://www.w3.org/1999/xlink" width="44.04054" height="66.56306" viewBox="0,0,44.04054,66.56306"><g transform="translate(-192.92031,-90.56867)"><g stroke-miterlimit="10"><path d="M194.67031,155.38174v-63.06306h40.54054v63.06306z" fill="#5e4200" stroke="#000000" stroke-width="3.5" stroke-linecap="butt"/><path d="M195.41409,154.50777v-9h39.33334v9z" fill="#2f2100" stroke="#000000" stroke-width="3.5" stroke-linecap="butt"/><path d="M194.74742,102.17444v-9h39.33334v9z" fill="#2f2100" stroke="#000000" stroke-width="3.5" stroke-linecap="butt"/><path d="M203.08076,92.8411l-0.66667,59.66667" fill="none" stroke="#000000" stroke-width="3.5" stroke-linecap="round"/><path d="M228.08076,94.17444l0.33333,58.66667" fill="none" stroke="#000000" stroke-width="3.5" stroke-linecap="round"/><path d="M215.08076,94.8411l0.33333,57.33333" fill="none" stroke="#000000" stroke-width="3.5" stroke-linecap="round"/><path d="M196.87088,131.8928c0,-0.82843 0.67157,-1.5 1.5,-1.5c0.82843,0 1.5,0.67157 1.5,1.5c0,0.82843 -0.67157,1.5 -1.5,1.5c-0.82843,0 -1.5,-0.67157 -1.5,-1.5z" fill="#f5ff00" stroke="none" stroke-width="0.5" stroke-linecap="butt"/><path d="M204.75977,132.67058c0,-0.82843 0.67157,-1.5 1.5,-1.5c0.82843,0 1.5,0.67157 1.5,1.5c0,0.82843 -0.67157,1.5 -1.5,1.5c-0.82843,0 -1.5,-0.67157 -1.5,-1.5z" fill="#f5ff00" stroke="none" stroke-width="0.5" stroke-linecap="butt"/><path d="M209.75977,132.78169c0,-0.82843 0.67157,-1.5 1.5,-1.5c0.82843,0 1.5,0.67157 1.5,1.5c0,0.82843 -0.67157,1.5 -1.5,1.5c-0.82843,0 -1.5,-0.67157 -1.5,-1.5z" fill="#f5ff00" stroke="none" stroke-width="0.5" stroke-linecap="butt"/><path d="M217.64866,132.55947c0,-0.82843 0.67157,-1.5 1.5,-1.5c0.82843,0 1.5,0.67157 1.5,1.5c0,0.82843 -0.67157,1.5 -1.5,1.5c-0.82843,0 -1.5,-0.67157 -1.5,-1.5z" fill="#f5ff00" stroke="none" stroke-width="0.5" stroke-linecap="butt"/><path d="M222.75977,132.67058c0,-0.82843 0.67157,-1.5 1.5,-1.5c0.82843,0 1.5,0.67157 1.5,1.5c0,0.82843 -0.67157,1.5 -1.5,1.5c-0.82843,0 -1.5,-0.67157 -1.5,-1.5z" fill="#f5ff00" stroke="none" stroke-width="0.5" stroke-linecap="butt"/><path d="M230.3431,132.44836c0,-0.69036 0.55964,-1.25 1.25,-1.25c0.69036,0 1.25,0.55964 1.25,1.25c0,0.69036 -0.55964,1.25 -1.25,1.25c-0.69036,0 -1.25,-0.55964 -1.25,-1.25z" fill="#f5ff00" stroke="none" stroke-width="0.5" stroke-linecap="butt"/><path d="M197.23199,119.67058c0,-0.69036 0.55964,-1.25 1.25,-1.25c0.69036,0 1.25,0.55964 1.25,1.25c0,0.69036 -0.55964,1.25 -1.25,1.25c-0.69036,0 -1.25,-0.55964 -1.25,-1.25z" fill="#f5ff00" stroke="none" stroke-width="0.5" stroke-linecap="butt"/><path d="M206.00977,119.8928c0,-0.69036 0.55964,-1.25 1.25,-1.25c0.69036,0 1.25,0.55964 1.25,1.25c0,0.69036 -0.55964,1.25 -1.25,1.25c-0.69036,0 -1.25,-0.55964 -1.25,-1.25z" fill="#f5ff00" stroke="none" stroke-width="0.5" stroke-linecap="butt"/><path d="M210.12088,120.00391c0,-0.69036 0.55964,-1.25 1.25,-1.25c0.69036,0 1.25,0.55964 1.25,1.25c0,0.69036 -0.55964,1.25 -1.25,1.25c-0.69036,0 -1.25,-0.55964 -1.25,-1.25z" fill="#f5ff00" stroke="none" stroke-width="0.5" stroke-linecap="butt"/><path d="M218.23199,120.11502c0,-0.69036 0.55964,-1.25 1.25,-1.25c0.69036,0 1.25,0.55964 1.25,1.25c0,0.69036 -0.55964,1.25 -1.25,1.25c-0.69036,0 -1.25,-0.55964 -1.25,-1.25z" fill="#f5ff00" stroke="none" stroke-width="0.5" stroke-linecap="butt"/><path d="M222.12088,120.22614c0,-0.69036 0.55964,-1.25 1.25,-1.25c0.69036,0 1.25,0.55964 1.25,1.25c0,0.69036 -0.55964,1.25 -1.25,1.25c-0.69036,0 -1.25,-0.55964 -1.25,-1.25z" fill="#f5ff00" stroke="none" stroke-width="0.5" stroke-linecap="butt"/><path d="M230.78755,120.78169c0,-0.69036 0.55964,-1.25 1.25,-1.25c0.69036,0 1.25,0.55964 1.25,1.25c0,0.69036 -0.55964,1.25 -1.25,1.25c-0.69036,0 -1.25,-0.55964 -1.25,-1.25z" fill="#f5ff00" stroke="none" stroke-width="0.5" stroke-linecap="butt"/></g></g></svg>