<svg version="1.1" xmlns="http://www.w3.org/2000/svg" xmlns:xlink="http://www.w3.org/1999/xlink" width="96.0885" height="126.04075" viewBox="0,0,96.0885,126.04075"><g transform="translate(-168.87831,-141.49632)"><g data-paper-data="{&quot;isPaintingLayer&quot;:true}" fill-rule="nonzero" stroke-linecap="butt" stroke-linejoin="miter" stroke-miterlimit="10" stroke-dasharray="" stroke-dashoffset="0" style="mix-blend-mode: normal"><path d="M175.22017,225.68172v-82.6854h82.6854v82.6854z" fill="#cae81e" stroke="#000000" stroke-width="3"/><text transform="translate(178.30667,237.55081) scale(0.24068,0.24068)" font-size="40" xml:space="preserve" fill="#ffffff" fill-rule="nonzero" stroke="none" stroke-width="1" stroke-linecap="butt" stroke-linejoin="miter" stroke-miterlimit="10" stroke-dasharray="" stroke-dashoffset="0" font-family="Pixel" font-weight="normal" text-anchor="start" style="mix-blend-mode: normal"><tspan x="0" dy="0">    Fall n Jump</tspan><tspan x="0" dy="48px">World Expansion</tspan></text><path d="M184.03967,161.30509v-9.22679h63.11127v9.22679z" fill="#18bb2b" stroke="none" stroke-width="0"/><path d="M180.34896,184.18754v-8.11958h15.13194v8.11958z" fill="#18bb2b" stroke="none" stroke-width="0"/><path d="M201.38605,185.29476v-7.75051h14.02473v7.75051z" fill="#18bb2b" stroke="none" stroke-width="0"/><path d="M221.68499,186.0329v-8.48865h15.50101v8.48865z" fill="#18bb2b" stroke="none" stroke-width="0"/><path d="M242.35301,187.50919v-8.48865h12.54844v8.48865z" fill="#18bb2b" stroke="none" stroke-width="0"/><path d="M196.21904,204.85556v-4.42886h13.65565v4.42886z" fill="#18bb2b" stroke="none" stroke-width="0"/><path d="M218.73242,204.30195v-4.05979h15.50101v4.05979z" fill="#18bb2b" stroke="none" stroke-width="0"/><path d="M183.40173,211.86995l6.93687,-8.15082l3.93488,3.34883l-6.93687,8.15082z" fill="#18bb2b" stroke="none" stroke-width="0"/><path d="M245.32869,213.77778l-7.67317,-7.4618l3.60225,-3.70429l7.67317,7.4618z" fill="#18bb2b" stroke="none" stroke-width="0"/><path d="M180.34896,222.571v-3.32165h73.44528v3.32165z" fill="#18bb2b" stroke="none" stroke-width="0"/><text transform="translate(169.24506,264.96982) scale(0.2445,0.2445)" font-size="40" xml:space="preserve" fill="#ffffff" fill-rule="nonzero" stroke="none" stroke-width="1" stroke-linecap="butt" stroke-linejoin="miter" stroke-miterlimit="10" stroke-dasharray="" stroke-dashoffset="0" font-family="Pixel" font-weight="normal" text-anchor="start" style="mix-blend-mode: normal"><tspan x="0" dy="0">Gamepass Ativada</tspan></text></g></g></svg>