<svg version="1.1" xmlns="http://www.w3.org/2000/svg" xmlns:xlink="http://www.w3.org/1999/xlink" width="650.06907" height="373.42642" viewBox="0,0,650.06907,373.42642"><g transform="translate(4.27327,7.95195)"><g stroke-miterlimit="10"><path d="M471.73273,357.96698v-360.91892h37.12312v360.91892z" fill="#ffffff" stroke="none" stroke-width="0"/><path d="M0.73273,364.96698v-371.91892h86.12312v371.91892z" fill="#ffffff" stroke="none" stroke-width="0"/><path d="M54.72973,120.1952v-127.65165h548.04805v127.65165z" fill="#ffffff" stroke="none" stroke-width="0"/><path d="M177.73273,363.96698v-368.91892h86.12312v368.91892z" fill="#ffffff" stroke="none" stroke-width="0"/><path d="M347.73273,357.96698v-360.91892h37.12312v360.91892z" fill="#ffffff" stroke="none" stroke-width="0"/><path d="M593.73273,360.96698v-368.91892h46.12312v368.91892z" fill="#ffffff" stroke="none" stroke-width="0"/><path d="M-4.27327,365.47448v-75.0991h650.06907v75.0991z" fill="#9a9a9a" stroke="none" stroke-width="0"/><path d="M-1.27027,296.1952v-96.65165h640.04805v96.65165z" fill="#ffffff" stroke="none" stroke-width="0"/><path d="M88.24782,199.07989v-78.87868h88.49632v78.87868z" fill="none" stroke="#000000" stroke-width="5.5"/><path d="M262.74782,198.07989v-78.87868h85.49632v78.87868z" fill="none" stroke="#000000" stroke-width="5.5"/><path d="M385.24782,199.07989v-78.87868h88.49632v78.87868z" fill="none" stroke="#000000" stroke-width="5.5"/><path d="M510.15172,199.3952v-78.87868h83.82965v78.87868z" fill="none" stroke="#000000" stroke-width="5.5"/></g></g></svg>