<svg version="1.1" xmlns="http://www.w3.org/2000/svg" xmlns:xlink="http://www.w3.org/1999/xlink" width="92.49574" height="117.6235" viewBox="0,0,92.49574,117.6235"><g transform="translate(-269.97018,-143.5)"><g stroke-miterlimit="10"><path d="M271.47018,232.76897v-87.76897h87.76897v87.76897z" fill="#ff1515" stroke="#000000" stroke-width="3"/><text transform="translate(273.98938,245.09023) scale(0.27098,0.27098)" font-size="40" xml:space="preserve" fill="#ffffff" stroke="none" stroke-width="1" font-family="Pixel" font-weight="normal" text-anchor="start"><tspan x="0" dy="0">    Camiseta</tspan><tspan x="0" dy="48px"> de Aniversário</tspan></text><path d="M300.23552,195.04353v-22.76681h29.72333v22.76681z" fill="#26b700" stroke="none" stroke-width="0"/><path d="M305.90996,214.31237v-41.83402h18.65614v41.83402z" fill="#26b700" stroke="none" stroke-width="0"/><path d="M305.69829,172.12076v-17.07511h19.22531v17.07511z" fill="#26b700" stroke="none" stroke-width="0"/><path d="M306.76362,171.47858v-15.65218h16.94863v15.65218z" fill="#26b700" stroke="none" stroke-width="0"/><path d="M299.94505,184.38375v-12.18588h30.14657v12.18588z" fill="#ffffff" stroke="none" stroke-width="0"/><path d="M305.79153,195.09745v-17.89958h19.1424v17.89958z" fill="#ffffff" stroke="none" stroke-width="0"/><text transform="translate(312.9043,178.30365) scale(0.1836,0.1836)" font-size="40" xml:space="preserve" fill="#000000" stroke="none" stroke-width="1" font-family="Sans Serif" font-weight="normal" text-anchor="start"><tspan x="0" dy="0">a</tspan></text><text transform="translate(310.15326,184.70512) scale(0.16068,0.16068)" font-size="40" xml:space="preserve" fill="#000000" stroke="none" stroke-width="1" font-family="Sans Serif" font-weight="normal" text-anchor="start"><tspan x="0" dy="0">🎂</tspan></text><text transform="translate(307.1906,190.77142) scale(0.12807,0.12807)" font-size="40" xml:space="preserve" fill="#000000" stroke="none" stroke-width="1" font-family="Sans Serif" font-weight="normal" text-anchor="start"><tspan x="0" dy="0">for me</tspan></text></g></g></svg>