<svg version="1.1" xmlns="http://www.w3.org/2000/svg" xmlns:xlink="http://www.w3.org/1999/xlink" width="716.33709" height="508.09784" viewBox="0,0,716.33709,508.09784"><g transform="translate(33.55255,142.6624)"><g stroke="none" stroke-width="0" stroke-miterlimit="10"><path d="M-31.74774,365.43544v-367.86787h703.49249v367.86787z" fill="#75eaff"/><path d="M-31.92676,300.18945l0.24863,-70.18062l140.27701,1l0.41804,69.63765z" fill="#c5c3c3"/><path d="M78.0233,327.95321l96.03143,-88.68168l284.77222,1l106.70159,87.68168z" fill="#e3e1e1"/><path d="M449.03904,269.89244l1.54202,-38.68824l74.12857,-1.33333l-1.87535,62.64529z" fill="#c5c3c3"/><path d="M-32.77701,364.30255v-64.68168h715.56156v64.68168z" fill="#ffffff"/><path d="M188.30632,269.55255v-38.68168h262.19793v38.68168z" fill="#c5c3c3"/><path d="M108.40657,300.52278l0.24863,-70.18061l80.61034,1l-0.58196,38.97098z" fill="#c5c3c3"/><path d="M523.25211,300.98253v-285.6348h32.07507v285.6348z" fill="#694700"/><path d="M600.25211,300.98253v-281.6348h13.07507v281.6348z" fill="#694700"/><path d="M-33.55254,39.01928v-181.68168h714.56156v181.68168z" fill="#dddddd"/><path d="M554.2331,301.25v-262.25h46v262.25z" fill-opacity="0.64706" fill="#4161b7"/><path d="M613.2331,300.75v-261.5h66v261.5z" fill-opacity="0.64706" fill="#4161b7"/><path d="M-32.7669,300.75v-261.5h142v261.5z" fill-opacity="0.64706" fill="#4161b7"/></g></g></svg>