<svg version="1.1" xmlns="http://www.w3.org/2000/svg" xmlns:xlink="http://www.w3.org/1999/xlink" width="585.58558" height="436.33969" viewBox="0,0,585.58558,436.33969"><g transform="translate(48.17639,63.42827)"><g data-paper-data="{&quot;isPaintingLayer&quot;:true}" fill-rule="nonzero" stroke="none" stroke-width="0" stroke-linecap="butt" stroke-linejoin="miter" stroke-miterlimit="10" stroke-dasharray="" stroke-dashoffset="0" style="mix-blend-mode: normal"><path d="M-20.52328,372.91142v-392.96293h517.28818v392.96293z" fill="#12ff1e"/><path d="M-8.79316,363.45326v-17.92525h82.58333v17.92525z" fill="#c20e0e"/><path d="M59.95684,362.92605v-21.35213h31.58333v21.35213z" fill="#c20e0e"/><path d="M85.70684,361.34441v-23.9882h31.58333v23.9882z" fill="#c20e0e"/><path d="M112.59969,365.14788v-34.11823h31.58333v34.11823z" fill="#c20e0e"/><path d="M138.95684,361.34441v-36.1141h67.83333v36.1141z" fill="#c20e0e"/><path d="M182.95684,303.47596v-11.16668h147.83333v11.16668z" fill="#c20e0e"/><path d="M357.95684,302.94874v-11.16668h131.83333v11.16668z" fill="#c20e0e"/><g fill="#c2880e"><path d="M186.44493,325.32069v-25.26482h2.5v25.26483z"/><path d="M195.30207,325.58805v-25.26482h2.5v25.26482z"/><path d="M196.73124,307.00098l-9.50036,0.01212l-0.00084,-4.67867l9.50035,-0.01213z"/><path d="M197.15982,313.95214l-9.50036,0.01213l-0.00084,-4.67867l9.50036,-0.01213z"/><path d="M196.73124,321.70537l-9.50036,0.01213l-0.00084,-4.67867l9.50035,-0.01213z"/></g><g fill="#c2880e"><path d="M465.44493,291.96366v-28.77756h2.5v28.77756z"/><path d="M474.30207,292.26817v-28.77755h2.5v28.77755z"/><path d="M475.73124,271.09684l-9.50036,0.0138l-0.00085,-5.32918l9.50036,-0.0138z"/><path d="M476.15982,279.01446l-9.50035,0.01381l-0.00085,-5.32918l9.50036,-0.01381z"/><path d="M475.73124,287.84566l-9.50036,0.01381l-0.00085,-5.32918l9.50036,-0.0138z"/></g><g fill="#c2880e"><path d="M465.44493,267.71185v-28.77756h2.5v28.77756z"/><path d="M474.30207,268.01636v-28.77755h2.5v28.77755z"/><path d="M475.73124,246.84502l-9.50036,0.0138l-0.00085,-5.32918l9.50036,-0.01381z"/><path d="M476.15982,254.76264l-9.50035,0.01381l-0.00085,-5.32918l9.50036,-0.01381z"/><path d="M475.73124,263.59385l-9.50036,0.01381l-0.00085,-5.32918l9.50036,-0.0138z"/></g><path d="M-3.29316,238.5488v-6.2619h490.58333v6.2619z" fill="#0e4cc2"/><path d="M394.64246,239.18787v-6.94165h25.5v6.94165z" fill="#b8bbc2"/><path d="M340.39246,239.18787v-6.94165h24.5v6.94165z" fill="#b8bbc2"/><path d="M295.39246,238.66066v-6.94165h21v6.94165z" fill="#b8bbc2"/><path d="M247.89246,238.92427v-6.94165h29v6.94165z" fill="#b8bbc2"/><path d="M197.14246,238.92427v-6.94165h29v6.94165z" fill="#b8bbc2"/><path d="M147.14246,239.18787v-6.94165h25.5v6.94165z" fill="#b8bbc2"/><path d="M104.89246,238.66066v-6.94165h22.5v6.94165z" fill="#b8bbc2"/><path d="M54.14246,238.66066v-6.94165h29v6.94165z" fill="#b8bbc2"/><g fill="#c2880e"><path d="M0.69493,232.38857v-28.77755h2.5v28.77755z"/><path d="M9.55207,232.69307v-28.77755h2.5v28.77755z"/><path d="M10.98124,211.52174l-9.50035,0.0138l-0.00085,-5.32918l9.50035,-0.0138z"/><path d="M11.40981,219.43938l-9.50035,0.01381l-0.00085,-5.32918l9.50035,-0.01381z"/><path d="M10.98124,228.27059l-9.50035,0.01381l-0.00085,-5.32918l9.50035,-0.01381z"/></g><g fill="#c2880e"><path d="M0.69493,208.13677v-28.77755h2.5v28.77755z"/><path d="M9.55207,208.44127v-28.77756h2.5v28.77756z"/><path d="M10.98124,187.26994l-9.50035,0.0138l-0.00085,-5.32918l9.50035,-0.01381z"/><path d="M11.40981,195.18757l-9.50035,0.01381l-0.00085,-5.32917l9.50035,-0.01381z"/><path d="M10.98124,204.01878l-9.50035,0.01381l-0.00085,-5.32918l9.50035,-0.01381z"/></g><path d="M-1.60754,366.14098v-8.31277h490.5v8.31277z" fill="#b8bbc2"/><path d="M0.14859,178.41534l0.13075,-8.96156l120.48574,1.95452l-0.13075,8.96156z" fill="#828282"/><path d="M140.24748,178.08575l-0.0895,-8.96191l100.50819,-1.60366l0.0895,8.96191z" fill="#828282"/><path d="M277.64858,176.8337l0.04999,-8.96156l46.0665,1.95452l-0.04999,8.96156z" fill="#828282"/><path d="M357.14859,178.41534l0.01855,-8.96156l17.09794,1.95452l-0.01855,8.96156z" fill="#828282"/><path d="M405.14859,181.57862l0.01584,-8.96156l14.60065,1.95452l-0.01584,8.96156z" fill="#828282"/><path d="M456.14859,185.26911l0.06787,-8.96156l62.54862,1.95452l-0.06787,8.96156z" fill="#828282"/><g fill="#c2880e"><path d="M467.19493,178.08562v-28.77755h2.5v28.77755z"/><path d="M476.05207,178.39012v-28.77755h2.5v28.77755z"/><path d="M477.48124,157.21879l-9.50035,0.0138l-0.00085,-5.32918l9.50035,-0.0138z"/><path d="M477.90981,165.13642l-9.50035,0.01381l-0.00085,-5.32918l9.50035,-0.01381z"/><path d="M477.48124,173.96763l-9.50035,0.01381l-0.00085,-5.32918l9.50035,-0.01381z"/></g><g fill="#c2880e"><path d="M467.19493,153.83382v-28.77755h2.5v28.77755z"/><path d="M476.05207,154.13831v-28.77756h2.5v28.77756z"/><path d="M477.48124,132.96698l-9.50035,0.0138l-0.00085,-5.32918l9.50035,-0.01381z"/><path d="M477.90981,140.88462l-9.50035,0.01381l-0.00085,-5.32917l9.50035,-0.01381z"/><path d="M477.48124,149.71583l-9.50035,0.01381l-0.00085,-5.32918l9.50035,-0.01381z"/></g><path d="M353.76508,124.91701v-11.07148h126v11.07148z" fill="#28ff36"/><path d="M198.76508,123.86258v-11.07148h126v11.07148z" fill="#28ff36"/><path d="M-13.23492,124.91701v-11.07148h183v11.07148z" fill="#28ff36"/><path d="M-48.17639,75.89532v-139.32359h584.08408v139.32359z" fill="#ffffff"/><path d="M-33.16138,83.81144v-9.49934h570.57057v9.49934z" fill="#393939"/><g fill="#eba610"><path d="M2.19494,114.54382v-21.66579h2.5v21.66579z"/><path d="M11.05208,114.77307v-21.66579h2.5v21.66579z"/><path d="M12.48125,98.83378l-9.50035,0.0104l-0.00085,-4.01219l9.50035,-0.0104z"/><path d="M12.90982,104.79474l-9.50035,0.0104l-0.00085,-4.01219l9.50035,-0.0104z"/><path d="M12.48125,111.44351l-9.50035,0.0104l-0.00085,-4.01219l9.50035,-0.0104z"/></g><g fill="#e5a110"><path d="M2.19494,96.28534v-21.66579h2.5v21.66579z"/><path d="M11.05208,96.51458v-21.66579h2.5v21.66579z"/><path d="M12.48125,80.5753l-9.50035,0.0104l-0.00085,-4.01219l9.50035,-0.0104z"/><path d="M12.90982,86.53626l-9.50035,0.0104l-0.00085,-4.01218l9.50035,-0.0104z"/><path d="M12.48125,93.18502l-9.50035,0.0104l-0.00085,-4.01219l9.50035,-0.0104z"/></g><path d="M316.68847,16.20961c0,32.35242 -34.2845,58.57924 -76.57658,58.57924c-42.29208,0 -76.57658,-26.22682 -76.57658,-58.57924c0,-32.35242 34.2845,-58.57924 76.57658,-58.57924c42.29208,0 76.57658,26.22682 76.57658,58.57924z" fill="#09820f"/></g></g></svg>