<svg version="1.1" xmlns="http://www.w3.org/2000/svg" xmlns:xlink="http://www.w3.org/1999/xlink" width="85.6854" height="133.86754" viewBox="0,0,85.6854,133.86754"><g transform="translate(-253.72017,-141.49632)"><g stroke-miterlimit="10"><path d="M255.22017,225.68172v-82.6854h82.6854v82.6854z" fill="#53c8e8" stroke="#000000" stroke-width="3"/><text transform="translate(265.10667,237.55081) scale(0.24068,0.24068)" font-size="40" xml:space="preserve" fill="#ffffff" stroke="none" stroke-width="1" font-family="Pixel" font-weight="normal" text-anchor="start"><tspan x="0" dy="0">Rocket Guys</tspan><tspan x="0" dy="48px">    Full Fuel!</tspan></text><path d="M266.67699,195.06796v-15.50101h57.94427v15.50101z" fill="#8b8b8b" stroke="#000000" stroke-width="0"/><path d="M276.71287,166.17178v-10.96769h11.15358v10.96769z" fill="#26b700" stroke="none" stroke-width="0"/><path d="M273.36679,179.37019v-13.3843h17.47395v13.3843z" fill="#26b700" stroke="none" stroke-width="0"/><path d="M276.89876,190.70967v-35.13379h10.96769v35.13379z" fill="#26b700" stroke="none" stroke-width="0"/><path d="M315.39447,198.69717v-22.14431h3.32165v22.14431z" fill="#ff0000" stroke="none" stroke-width="0"/><path d="M317.97797,196.48274v-17.34637h8.11958v17.34637z" fill="#ff0000" stroke="none" stroke-width="0"/><g fill="#ff9400" stroke="none" stroke-width="0"><path d="M258.44105,183.70666h11.62214v2.49046h-11.62214z"/><path d="M261.59563,186.03109h8.1355v3.98473h-8.1355z"/><path d="M259.10518,190.01582h10.62596v1.82634h-10.62596z"/></g><g fill="#fff700" stroke="none" stroke-width="0"><path d="M261.57589,184.79374h8.06434v1.72807h-8.06434z"/><path d="M263.76478,186.40661h5.64504v2.76492h-5.64504z"/><path d="M262.03671,189.17153h7.37311v1.26725h-7.37311z"/></g><path d="M301,191.43333v-8.16667h9.8v8.16667z" fill="#37608a" stroke="none" stroke-width="0"/><text transform="translate(271.30718,260.89761) scale(0.2445,0.2445)" font-size="40" xml:space="preserve" fill="#ffffff" stroke="none" stroke-width="1" font-family="Pixel" font-weight="normal" text-anchor="start"><tspan x="0" dy="0">Gamepass </tspan><tspan x="0" dy="48px">Comprada</tspan></text></g></g></svg>