<svg version="1.1" xmlns="http://www.w3.org/2000/svg" xmlns:xlink="http://www.w3.org/1999/xlink" width="100.80835" height="76.62217" viewBox="0,0,100.80835,76.62217"><g transform="translate(-167.42568,-108)"><g stroke="none" stroke-miterlimit="10"><path d="M192.00381,162.81486v-54.81486h53.97799v54.81486z" fill="#00f7ff" stroke-width="0"/><path d="M192.02288,153.10252v-16.6378h53.97799v16.6378z" fill="#dadada" stroke-width="0"/><text transform="translate(168.08333,180.67627) scale(0.3758,0.3758)" font-size="40" xml:space="preserve" fill="#ffffff" stroke-width="1" font-family="Pixel" font-weight="normal" text-anchor="start"><tspan x="0" dy="0">Rocket Guys</tspan></text><path d="M192.01334,162.57487v-9.1521h53.97799v9.1521z" fill="#39ff00" stroke-width="0"/><g stroke-width="0"><path d="M211.41448,146.63016v-6.73197h23.83481v6.73197z" fill="#676767"/><path d="M234.70346,144.62876v-2.72918h7.09586v2.72918z" fill="#ffd200"/><path d="M233.73435,146.28901v-2.18334h5.68578v2.18334z" fill="#ffd200"/><path d="M234.41664,142.3317v-1.95591h4.00279v1.95591z" fill="#ffd200"/><path d="M210.79874,146.64768v-6.85326h24.62323v6.85326z" fill="#676767"/><path d="M213.64921,145.01018v-3.15371h3.82085v3.15371z" fill="#ababab"/><path d="M209.10461,144.09656l-1.47003,-2.19762l7.61318,-5.0926l1.47003,2.19762z" fill="#ff0000"/><path d="M207.71417,141.9429l2.2403,-1.40412l4.86429,7.76105l-2.2403,1.40412z" fill="#ff0000"/></g><g stroke-width="0"><path d="M199.69701,126.15679v-6.73197h23.83481v6.73197z" fill="#676767"/><path d="M193.14699,124.1554v-2.72918h7.09586v2.72918z" fill="#ffd200"/><path d="M195.52617,125.81564v-2.18334h5.68579v2.18334z" fill="#ffd200"/><path d="M196.52687,121.85834v-1.95591h4.00279v1.95591z" fill="#ffd200"/><path d="M199.52433,126.17432v-6.85327h24.62323v6.85327z" fill="#676767"/><path d="M217.47625,124.53682v-3.15372h3.82084v3.15372z" fill="#ababab"/><path d="M218.22851,118.53059l1.47003,-2.19762l7.61318,5.0926l-1.47003,2.19762z" fill="#ff0000"/><path d="M222.36785,129.23059l-2.24031,-1.40412l4.86428,-7.76106l2.24031,1.40413z" fill="#ff0000"/></g></g></g></svg>