<svg version="1.1" xmlns="http://www.w3.org/2000/svg" xmlns:xlink="http://www.w3.org/1999/xlink" width="80.0454" height="75.48614" viewBox="0,0,80.0454,75.48614"><g transform="translate(-185.63777,-107.28582)"><g data-paper-data="{&quot;isPaintingLayer&quot;:true}" fill-rule="nonzero" stroke="none" stroke-linecap="butt" stroke-linejoin="miter" stroke-miterlimit="10" stroke-dasharray="" stroke-dashoffset="0" style="mix-blend-mode: normal"><g fill="#ff1212" stroke-width="0"><path d="M220.85163,128.88255v-11.02171h10.65433v11.02172z"/><path d="M221.2949,143.34845v-15.88344h9.53007v15.88344z"/><path d="M221.2949,150.76072v-9.74184h4.87093v9.74184z"/><path d="M226.16583,151.18428v-9.53007h4.44736v9.53007z"/><path d="M217.18256,140.30312l3.29143,-9.16897l2.3919,0.85863l-3.29143,9.16897z"/><path d="M226.59971,134.68685l7.09817,-8.96659l4.31725,3.41764l-7.09818,8.96659z"/></g><path d="M199.75431,162.10068v-54.81486h53.97799v54.81486z" fill="#f612ff" stroke-width="0"/><text transform="translate(186.20148,178.82606) scale(0.3758,0.3758)" font-size="40" xml:space="preserve" fill="#ffffff" fill-rule="nonzero" stroke="none" stroke-width="1" stroke-linecap="butt" stroke-linejoin="miter" stroke-miterlimit="10" stroke-dasharray="" stroke-dashoffset="0" font-family="Pixel" font-weight="normal" text-anchor="start" style="mix-blend-mode: normal"><tspan x="0" dy="0">The Plaza</tspan></text><g stroke-width="0"><path d="M207.88672,127.98905v-11.02171h10.65433v11.02172z" fill="#3f12ff"/><path d="M208.32999,142.45495v-15.88344h9.53006v15.88344z" fill="#3f12ff"/><path d="M208.32999,149.86723v-9.74184h4.87092v9.74184z" fill="#3f12ff"/><path d="M213.20091,150.29078v-9.53006h4.44736v9.53006z" fill="#3f12ff"/><path d="M204.21765,139.40963l3.29143,-9.16897l2.39191,0.85863l-3.29143,9.16897z" fill="#3f12ff"/><path d="M213.6348,133.79335l7.09817,-8.96659l4.31725,3.41764l-7.09817,8.96659z" fill="#3f12ff"/></g><g fill="#ff1212" stroke-width="0"><path d="M222.7818,127.03201v-11.02171h10.65433v11.02172z"/><path d="M223.22507,141.49791v-15.88344h9.53007v15.88344z"/><path d="M223.22507,148.91018v-9.74184h4.87093v9.74184z"/><path d="M228.096,149.33374v-9.53007h4.44736v9.53007z"/><path d="M219.11273,138.45259l3.29143,-9.16897l2.3919,0.85863l-3.29143,9.16897z"/><path d="M228.52988,132.83631l7.09817,-8.96659l4.31725,3.41764l-7.09818,8.96659z"/></g><g data-paper-data="{&quot;index&quot;:null}" fill="#4aff12" stroke-width="0"><path d="M236.26941,128.32991v-11.02171h10.65433v11.02172z"/><path d="M236.9504,142.79581v-15.88344h9.53007v15.88344z"/><path d="M241.60954,150.20808v-9.74184h4.87093v9.74184z"/><path d="M237.16218,150.63164v-9.53007h4.44736v9.53007z"/><path d="M248.2009,140.60912l-3.29143,-9.16897l2.3919,-0.85863l3.29143,9.16897z"/><path d="M236.85841,137.55185l-7.09818,-8.96659l4.31725,-3.41764l7.09817,8.96659z"/></g><g fill="#ffe612" stroke-width="0"><path d="M221.31571,130.1685v-11.02171h10.65433v11.02172z"/><path d="M221.75899,144.6344v-15.88344h9.53007v15.88344z"/><path d="M221.75899,152.04667v-9.74184h4.87093v9.74184z"/><path d="M226.62991,152.47023v-9.53007h4.44736v9.53007z"/><path d="M217.64665,141.58908l3.29143,-9.16897l2.3919,0.85863l-3.29143,9.16897z"/><path d="M227.0638,135.9728l7.09817,-8.96659l4.31725,3.41764l-7.09818,8.96659z"/></g></g></g></svg>