<svg version="1.1" xmlns="http://www.w3.org/2000/svg" xmlns:xlink="http://www.w3.org/1999/xlink" width="102.5934" height="76.58831" viewBox="0,0,102.5934,76.58831"><g transform="translate(-174.61606,-106.91843)"><g data-paper-data="{&quot;isPaintingLayer&quot;:true}" fill-rule="nonzero" stroke="none" stroke-linecap="butt" stroke-linejoin="miter" stroke-miterlimit="10" stroke-dasharray="" stroke-dashoffset="0" style="mix-blend-mode: normal"><path d="M200.48909,161.73329v-54.81486h53.97799v54.81486z" fill="#43ff12" stroke-width="0"/><text transform="translate(175.17976,179.56084) scale(0.3758,0.3758)" font-size="40" xml:space="preserve" fill="#ffffff" fill-rule="nonzero" stroke="none" stroke-width="1" stroke-linecap="butt" stroke-linejoin="miter" stroke-miterlimit="10" stroke-dasharray="" stroke-dashoffset="0" font-family="Pixel" font-weight="normal" text-anchor="start" style="mix-blend-mode: normal"><tspan x="0" dy="0">Plate´s Obby</tspan></text><path d="M203.63556,146.03522v-1.80262h21.27088v1.80262z" fill="#7412ff" stroke-width="none"/><path d="M228.8722,152.88517v-1.80262h18.02617v1.80262z" fill="#7412ff" stroke-width="0"/><path d="M205.07765,156.4904v-2.16314h20.91036v2.16314z" fill="#7412ff" stroke-width="0"/><path d="M232.47743,142.06946v-1.44209h15.50251v1.44209z" fill="#7412ff" stroke-width="0"/><path d="M236.4481,140.74562v-6.75471h1.03919v6.75471z" fill="#7412ff" stroke-width="0"/><path d="M241.36981,140.9702v-6.75471h1.03919v6.75471z" fill="#7412ff" stroke-width="0"/><path d="M242.13809,139.49644l-5.66078,0.18591l-0.02398,-1.03879l5.66078,-0.18591z" fill="#7412ff" stroke-width="0"/><path d="M242.20609,136.74616l-5.66078,0.18591l-0.02398,-1.03879l5.66078,-0.18591z" fill="#7412ff" stroke-width="0"/><path d="M242.2741,134.62218l-5.66078,0.18591l-0.02398,-1.03879l5.66078,-0.18591z" fill="#7412ff" stroke-width="0"/><path d="M200.4068,132.97256v-1.91917h54.03215v1.91917z" fill="#12e5ff" stroke-width="0"/><path d="M235.54247,126.32926c0,1.14146 1.15667,2.0668 2.5835,2.0668c1.42683,0 2.5835,-0.92534 2.5835,-2.0668c0,-1.14146 -1.15667,-2.0668 -2.5835,-2.0668c-1.42683,0 -2.5835,0.92534 -2.5835,2.0668z" fill="#12e5ff" stroke-width="0"/><path d="M229.78494,121.01462c0,1.38606 -1.5202,2.50969 -3.39546,2.50969c-1.87526,0 -3.39546,-1.12363 -3.39546,-2.50969c0,-1.38606 1.5202,-2.50969 3.39546,-2.50969c1.87526,0 3.39546,1.12363 3.39546,2.50969z" fill="#12e5ff" stroke-width="0"/><path d="M217.82701,116.2905c0,1.4676 -1.75154,2.65732 -3.91216,2.65732c-2.16063,0 -3.91216,-1.18972 -3.91216,-2.65732c0,-1.4676 1.75154,-2.65732 3.91216,-2.65732c2.16063,0 3.91216,1.18972 3.91216,2.65732z" fill="#12e5ff" stroke-width="0"/><path d="M211.6266,124.55771c0,1.54913 -1.48715,2.80495 -3.32165,2.80495c-1.8345,0 -3.32165,-1.25582 -3.32165,-2.80495c0,-1.54913 1.48715,-2.80495 3.32165,-2.80495c1.8345,0 3.32165,1.25582 3.32165,2.80495z" fill="#12e5ff" stroke-width="0"/><path d="M208.52639,114.22369c0,1.30453 -1.09058,2.36206 -2.43588,2.36206c-1.3453,0 -2.43588,-1.05753 -2.43588,-2.36206c0,-1.30453 1.09058,-2.36206 2.43588,-2.36206c1.3453,0 2.43588,1.05753 2.43588,2.36206z" fill="#12e5ff" stroke-width="0"/><path d="M252.22452,116.95483c0,2.73136 -1.81763,4.94557 -4.05979,4.94557c-2.24216,0 -4.05979,-2.21421 -4.05979,-4.94557c0,-2.73136 1.81763,-4.94557 4.05979,-4.94557c2.24216,0 4.05979,2.21421 4.05979,4.94557z" fill="#12e5ff" stroke-width="0"/></g></g></svg>