<svg version="1.1" xmlns="http://www.w3.org/2000/svg" xmlns:xlink="http://www.w3.org/1999/xlink" width="707.77203" height="465.31122" viewBox="0,0,707.77203,465.31122"><g transform="translate(40.42662,90.86675)"><g stroke-miterlimit="10"><path d="M-40.42662,364.62937v-455.49612h692.89361v455.49612z" fill="#00ceff" stroke="none" stroke-width="0"/><path d="M667.34541,329.4144v45.03007h-691.64264v-45.03007z" fill="#00d01d" stroke="none" stroke-width="0"/><path d="M166.05973,329.54747v-291.79583h212.21515v291.79584z" fill="#ffffff" stroke="#000000" stroke-width="4.5"/><path d="M380.56502,329.36142v-85.39409h109.42346v85.39409z" fill="#ffffff" stroke="#000000" stroke-width="4.5"/><path d="M227.40318,326.23163v-44.76412h91.18622v44.76412z" fill="#c2b9b9" stroke="#000000" stroke-width="4.5"/><path d="M222.42937,181.99166v-33.15861h104.44966v33.15861z" fill="#fafafa" stroke="#000000" stroke-width="4.5"/><path d="M239.68971,147.09679v-41.38706h67.35539v41.38706z" fill="#009dc2" stroke="#000000" stroke-width="4.5"/><path d="M411.72994,329.01043v-47.06763h54.3712v47.06763z" fill="#c2b9b9" stroke="#000000" stroke-width="4.5"/><path d="M172.82833,331.94447v-18.5h36.5v18.5z" fill="#a1a1a1" stroke="#000000" stroke-width="0"/><path d="M174.82833,293.94447v-18.5h36.5v18.5z" fill="#a1a1a1" stroke="#000000" stroke-width="0"/><path d="M175.82833,260.44447v-18.5h190v18.5z" fill="#a1a1a1" stroke="#000000" stroke-width="0"/><path d="M326.32833,229.44447v-18.5h36.5v18.5z" fill="#a1a1a1" stroke="#000000" stroke-width="0"/><path d="M293.82833,206.94447v-18.5h36.5v18.5z" fill="#a1a1a1" stroke="#000000" stroke-width="0"/><path d="M255.82833,181.94447v-18.5h36.5v18.5z" fill="#a1a1a1" stroke="#000000" stroke-width="0"/><path d="M173.82833,139.44447v-18.5h36.5v18.5z" fill="#a1a1a1" stroke="#000000" stroke-width="0"/><path d="M211.82833,162.78979v-18.5h36.5v18.5z" fill="#a1a1a1" stroke="#000000" stroke-width="0"/><path d="M174.82833,113.94447v-5h36.5v5z" fill="#a1a1a1" stroke="#000000" stroke-width="0"/><path d="M174.82833,105.44447v-5h36.5v5z" fill="#a1a1a1" stroke="#000000" stroke-width="0"/><path d="M174.82833,95.44447v-5h36.5v5z" fill="#a1a1a1" stroke="#000000" stroke-width="0"/><path d="M174.32833,85.94447v-5h36.5v5z" fill="#a1a1a1" stroke="#000000" stroke-width="0"/><path d="M173.82833,74.94447v-5h36.5v5z" fill="#a1a1a1" stroke="#000000" stroke-width="0"/><path d="M173.32833,64.94447v-5h36.5v5z" fill="#a1a1a1" stroke="#000000" stroke-width="0"/><path d="M173.32833,55.94447v-5h36.5v5z" fill="#a1a1a1" stroke="#000000" stroke-width="0"/><path d="M172.82833,46.44447v-5h36.5v5z" fill="#a1a1a1" stroke="#000000" stroke-width="0"/><path d="M171.82833,39.94447v-5h199.5v5z" fill="#a1a1a1" stroke="#000000" stroke-width="0"/></g></g></svg>