<svg version="1.1" xmlns="http://www.w3.org/2000/svg" xmlns:xlink="http://www.w3.org/1999/xlink" width="96.9564" height="93.52454" viewBox="0,0,96.9564,93.52454"><g transform="translate(-185.63779,-107.28582)"><g data-paper-data="{&quot;isPaintingLayer&quot;:true}" fill-rule="nonzero" stroke="none" stroke-linecap="butt" stroke-linejoin="miter" stroke-miterlimit="10" stroke-dasharray="" stroke-dashoffset="0" style="mix-blend-mode: normal"><g fill="#ff1212" stroke-width="0"><path d="M224.43596,128.88255v-11.02171h10.65433v11.02172z"/><path d="M224.87923,143.34845v-15.88344h9.53007v15.88344z"/><path d="M224.87923,150.76072v-9.74184h4.87093v9.74184z"/><path d="M229.75016,151.18428v-9.53007h4.44736v9.53007z"/><path d="M220.76689,140.30312l3.29143,-9.16897l2.3919,0.85863l-3.29143,9.16897z"/><path d="M230.18404,134.68685l7.09817,-8.96659l4.31725,3.41764l-7.09818,8.96659z"/></g><path d="M203.33864,162.10068v-54.81486h53.97799v54.81486z" fill="#14880a" stroke-width="0"/><path d="M218.54361,143.85196l1.55492,-3.38172l19.32413,8.88523l-1.55492,3.38172z" fill="#4a12ff" stroke-width="0"/><text transform="translate(186.2015,178.82606) scale(0.3758,0.3758)" font-size="40" xml:space="preserve" fill="#ffffff" fill-rule="nonzero" stroke="none" stroke-width="1" stroke-linecap="butt" stroke-linejoin="miter" stroke-miterlimit="10" stroke-dasharray="" stroke-dashoffset="0" font-family="Pixel" font-weight="normal" text-anchor="start" style="mix-blend-mode: normal"><tspan x="0" dy="0">The Floor is </tspan><tspan x="0" dy="48px">      Lava</tspan></text><path d="M203.31141,162.28823v-14.0907h54.23589v14.0907z" fill="#ff8b12" stroke-width="0"/><path d="M203.31141,150.5903v-2.65862h53.97002v2.65862z" fill="#ffff12" stroke-width="0"/><path d="M207.29935,134.90443v-3.72207h21.26898v3.72207z" fill="#4a12ff" stroke-width="0"/><path d="M215.97008,124.55408v-4.45137h4.10896v4.45137z" fill="#1287ff" stroke-width="0"/><path d="M216.99731,131.2882v-7.64723h2.51103v7.64723z" fill="#1287ff" stroke-width="0"/><path d="M215.17111,128.89131v-4.45137h5.93516v4.45137z" fill="#1287ff" stroke-width="0"/></g></g></svg>