<svg version="1.1" xmlns="http://www.w3.org/2000/svg" xmlns:xlink="http://www.w3.org/1999/xlink" width="802.52916" height="444.50084" viewBox="0,0,802.52916,444.50084"><g transform="translate(127.82429,57.83034)"><g stroke="none" stroke-width="0" stroke-miterlimit="10"><path d="M-23.76318,374.33525v-414.11475h692.60574v414.11475z" fill="#656565"/><path d="M-38.63808,265.5372v-36.58533h713.34295v36.58533z" fill-opacity="0.44314" fill="#b9b9b9"/><path d="M460.54498,134.10617v-38.31885h105.06557v38.31885z" fill-opacity="0.17647" fill="#bababa"/><path d="M466.90887,265.73524v-36.65188h81.60675v36.65188z" fill-opacity="0.17647" fill="#bababa"/><path d="M90.04614,266.08862v-36.65188h88.97173v36.65188z" fill-opacity="0.17647" fill="#bababa"/><path d="M-22.88056,10.81724v-68.64758h682.41045v68.64758z" fill-opacity="0.44314" fill="#ff7b00"/><path d="M-19.10785,133.30058v-36.58532c0,0 408.61465,0 532.87193,0c66.84196,0 154.19758,0 154.19758,0v36.58532z" fill-opacity="0.44314" fill="#b9b9b9"/><path d="M-127.82429,160.27214v-1.55683h1.55682v1.55683z" fill="#bababa"/><path d="M465.36495,100.16153v-9.10141h89.51728v9.10141z" fill="#bababa"/><path d="M466.1602,134.2821v-14.0114h89.51729v14.0114z" fill="#bababa"/><path d="M466.76251,171.05058v-14.0114h89.51728v14.0114z" fill="#bababa"/><path d="M467.09204,199.40296v-14.0114h89.51729v14.0114z" fill="#bababa"/><path d="M465.86475,223.86324v-14.0114h89.51728v14.0114z" fill="#bababa"/><g fill="#bababa"><path d=""/><path d=""/><path d=""/><path d=""/><path d=""/></g><path d="M94.29327,278.93787v-12.31112h78.65435v12.31112z" fill="#bababa"/><path d="M94.58281,301.79778v-12.31112h78.65434v12.31112z" fill="#bababa"/><path d="M95.5563,323.97379v-12.31111h78.65434v12.31111z" fill="#bababa"/><path d="M95.84585,348.20156v-12.31111h78.65434v12.31111z" fill="#bababa"/><path d="M94.76749,256.84173v-12.31111h78.65434v12.31112z" fill="#bababa"/><path d="M-18.44878,386.67049v-36.58533h662.06951v36.58533z" fill-opacity="0.44314" fill="#b9b9b9"/><path d="M266.02327,275.36699v-12.31111h78.65435v12.31111z" fill="#bababa"/><path d="M266.31282,298.22691v-12.31112h78.65434v12.31112z" fill="#bababa"/><path d="M267.28631,320.40288v-12.31111h78.65435v12.31111z" fill="#bababa"/><path d="M267.57585,344.63076v-12.31111h78.65434v12.31111z" fill="#bababa"/><path d="M266.4975,253.27089v-12.31111h78.65435v12.31112z" fill="#bababa"/><g fill="#bababa"><path d="M467.9613,275.69651v-12.31112h78.65434v12.31112z"/><path d="M468.25084,298.55647v-12.31112h78.65435v12.31112z"/><path d="M469.22433,320.73245v-12.31111h78.65434v12.31111z"/><path d="M469.51388,344.96025v-12.31111h78.65435v12.31111z"/><path d="M468.43552,253.60042v-12.31111h78.65434v12.31112z"/></g><path d="M411.28497,239.91749l5.8038,-0.02105l0.19024,117.6062l-5.8038,0.02105z" fill="#8a8a8a"/><path d="M245.03452,231.68448l5.80381,-0.02105l0.19024,117.6062l-5.8038,0.02105z" fill="#8a8a8a"/><path d="M465.97745,115.55053v-11.28363h89.51729v11.28363z" fill="#bababa"/><path d="M266.31474,233.72097v-12.31111h78.65435v12.31112z" fill="#bababa"/><path d="M94.82811,232.99265v-24.91614h78.65435v24.91617z" fill="#bababa"/><path d="M262.59899,265.64432v-36.65188h88.97173v36.65188z" fill-opacity="0.17647" fill="#bababa"/><path d="M466.30697,152.04623v-14.0114h89.51728v14.0114z" fill="#bababa"/></g></g></svg>