<svg version="1.1" xmlns="http://www.w3.org/2000/svg" xmlns:xlink="http://www.w3.org/1999/xlink" width="744.00204" height="470.87609" viewBox="0,0,744.00204,470.87609"><g transform="translate(48.76894,93.17639)"><g stroke-miterlimit="10"><path d="M-0.49549,377.6997v-75.07508h654.98799v75.07508z" fill="#0aff00" stroke="none" stroke-width="0"/><path d="M364.2943,336.15616v-10.51051h15.01502v10.51051z" fill="#0aff00" stroke="none" stroke-width="0"/><path d="M-48.76893,307.62763v-316.81682h724.51652v316.81682z" fill="#00ceff" stroke="none" stroke-width="0"/><path d="M10.2331,282.82362v-224h125v224z" fill="#787878" stroke="none" stroke-width="0"/><path d="M130.2331,287.82362v-224h210v224z" fill="#5b5b5b" stroke="none" stroke-width="0"/><path d="M263.2331,304.82362v-224h210v224z" fill="#787878" stroke="none" stroke-width="0"/><path d="M-30.49549,308.6997v-146.07508h710.71455v146.07508z" fill="#b1b1b1" stroke="none" stroke-width="0"/><path d="M691.2331,-22.67638c0,36.72693 -29.54921,66.5 -66,66.5c-36.45079,0 -66,-29.77306 -66,-66.5c0,-36.72693 29.54921,-66.5 66,-66.5c36.45079,0 66,29.77307 66,66.5z" fill="#ffde00" stroke="#ffa713" stroke-width="8"/></g></g></svg>