<svg version="1.1" xmlns="http://www.w3.org/2000/svg" xmlns:xlink="http://www.w3.org/1999/xlink" width="804.15326" height="382.36036" viewBox="0,0,804.15326,382.36036"><g transform="translate(136.66077,19.68168)"><g stroke="none" stroke-miterlimit="10"><path d="M-35.48949,344.68168v-364.36336h702.98198v364.36336z" fill="#25009a" stroke-width="0"/><path d="M-57.48949,362.67868v-44.03904h718.48048v44.03904z" fill="#606060" stroke-width="0"/><path d="M91.77627,301.36937v-177.18619h69.06907v177.18619z" fill="#b5b5b5" stroke-width="0"/><path d="M642.82733,277.34535v-1.5015h1.5015v1.5015z" fill="#b5b5b5" stroke-width="0"/><path d="M162.34685,308.87688v-282.28228h63.06306v282.28228z" fill="#b5b5b5" stroke-width="0"/><path d="M232.91742,290.85886v-223.72372h97.59759v223.72373z" fill="#b5b5b5" stroke-width="0"/><path d="M336.52101,295.36337v-219.21922h51.05106v219.21922z" fill="#b5b5b5" stroke-width="0"/><path d="M393.57808,287.85586v-196.6967h87.08709v196.6967z" fill="#b5b5b5" stroke-width="0"/><path d="M491.17567,292.36036v-187.68769h52.55255v187.68769z" fill="#b5b5b5" stroke-width="0"/><path d="M-16.49249,322.64264v-43.54354h667.98198v43.54354z" fill="#42b55f" stroke-width="0"/><path d="M99.01051,162.9985v-22h20v22z" fill="#ffee5c" stroke-width="0"/><path d="M131.01051,162.9985v-22h20v22z" fill="#ffee5c" stroke-width="0"/><path d="M99.01051,214.66517v-22h20v22z" fill="#ffee5c" stroke-width="0"/><path d="M131.34385,213.33184v-22h20v22z" fill="#ffee5c" stroke-width="0"/><path d="M169.01051,60.9985v-22h20v22z" fill="#ffee5c" stroke-width="0"/><path d="M201.01051,60.9985v-22h20v22z" fill="#ffee5c" stroke-width="0"/><path d="M169.01051,112.66517v-22h20v22z" fill="#ffee5c" stroke-width="0"/><path d="M201.34385,111.33184v-22h20v22z" fill="#ffee5c" stroke-width="0"/><path d="M169.01051,143.9985v-22h20v22z" fill="#ffee5c" stroke-width="0"/><path d="M201.01051,143.9985v-22h20v22z" fill="#ffee5c" stroke-width="0"/><path d="M238.01051,95.38787v-14.38937h13.08125v14.38937z" fill="#ffee5c" stroke-width="0"/><path d="M258.9405,95.38787v-14.38937h13.08125v14.38937z" fill="#ffee5c" stroke-width="0"/><path d="M238.01051,129.18109v-14.38937h13.08125v14.38937z" fill="#ffee5c" stroke-width="0"/><path d="M259.15852,128.30901v-14.38937h13.08125v14.38937z" fill="#ffee5c" stroke-width="0"/><path d="M286.01051,95.02891v-15.03041h13.66401v15.03041z" fill="#ffee5c" stroke-width="0"/><path d="M307.87292,95.02891v-15.03041h13.66401v15.03041z" fill="#ffee5c" stroke-width="0"/><path d="M286.01051,130.32759v-15.03041h13.66401v15.03041z" fill="#ffee5c" stroke-width="0"/><path d="M308.10065,129.41666v-15.03041h13.66401v15.03041z" fill="#ffee5c" stroke-width="0"/><path d="M239.01051,160.52891v-15.03041h13.66401v15.03041z" fill="#ffee5c" stroke-width="0"/><path d="M260.87292,160.52891v-15.03041h13.66401v15.03041z" fill="#ffee5c" stroke-width="0"/><path d="M239.01051,195.82759v-15.0304h13.66401v15.0304z" fill="#ffee5c" stroke-width="0"/><path d="M261.10066,194.91666v-15.0304h13.66401v15.0304z" fill="#ffee5c" stroke-width="0"/><path d="M288.01051,161.86224v-15.03041h13.66401v15.03041z" fill="#ffee5c" stroke-width="0"/><path d="M309.87292,161.86224v-15.03041h13.66401v15.03041z" fill="#ffee5c" stroke-width="0"/><path d="M288.01051,197.16092v-15.0304h13.66401v15.0304z" fill="#ffee5c" stroke-width="0"/><path d="M310.10066,196.24999v-15.0304h13.66401v15.0304z" fill="#ffee5c" stroke-width="0"/><path d="M238.51051,231.36224v-15.03041h13.66401v15.03041z" fill="#ffee5c" stroke-width="0"/><path d="M260.37292,231.36224v-15.03041h13.66401v15.03041z" fill="#ffee5c" stroke-width="0"/><path d="M238.51051,266.66092v-15.0304h13.66401v15.0304z" fill="#ffee5c" stroke-width="0"/><path d="M260.60066,265.74999v-15.03041h13.66401v15.03041z" fill="#ffee5c" stroke-width="0"/><path d="M288.51051,230.86224v-15.03041h13.66401v15.03041z" fill="#ffee5c" stroke-width="0"/><path d="M310.37292,230.86224v-15.03041h13.66401v15.03041z" fill="#ffee5c" stroke-width="0"/><path d="M288.51051,266.16092v-15.0304h13.66401v15.0304z" fill="#ffee5c" stroke-width="0"/><path d="M310.60066,265.24999v-15.03041h13.66401v15.03041z" fill="#ffee5c" stroke-width="0"/><g fill="#ffee5c" stroke-width="0"><path d="M168.51051,180.08835v-21.75652h19.77865v21.75652z"/><path d="M200.15636,180.08835v-21.75652h19.77865v21.75652z"/><path d="M168.51051,231.18321v-21.75652h19.77865v21.75652z"/><path d="M200.48601,229.86464v-21.75652h19.77865v21.75652z"/></g><path d="M345.01051,107.36224v-15.0304h13.664v15.0304z" fill="#ffee5c" stroke-width="0"/><path d="M366.87292,107.36224v-15.0304h13.66401v15.0304z" fill="#ffee5c" stroke-width="0"/><path d="M345.01051,142.66092v-15.0304h13.664v15.0304z" fill="#ffee5c" stroke-width="0"/><path d="M367.10065,141.74999v-15.03041h13.66401v15.03041z" fill="#ffee5c" stroke-width="0"/><path d="M346.51051,178.19557v-15.03041h13.664v15.03041z" fill="#ffee5c" stroke-width="0"/><path d="M368.37292,178.19557v-15.03041h13.66401v15.03041z" fill="#ffee5c" stroke-width="0"/><path d="M346.51051,213.49425v-15.03041h13.664v15.03041z" fill="#ffee5c" stroke-width="0"/><path d="M368.60065,212.58332v-15.03041h13.66401v15.03041z" fill="#ffee5c" stroke-width="0"/><path d="M399.01051,113.44986v-11.86803h10.78912v11.86803z" fill="#ffee5c" stroke-width="0"/><path d="M416.2731,113.44986v-11.86803h10.78912v11.86803z" fill="#ffee5c" stroke-width="0"/><path d="M399.01051,141.32175v-11.86803h10.78912v11.86803z" fill="#ffee5c" stroke-width="0"/><path d="M416.45292,140.60248v-11.86803h10.78912v11.86803z" fill="#ffee5c" stroke-width="0"/><path d="M444.51051,113.44987v-11.86803h10.78911v11.86803z" fill="#ffee5c" stroke-width="0"/><path d="M461.7731,113.44987v-11.86803h10.78912v11.86803z" fill="#ffee5c" stroke-width="0"/><path d="M444.51051,141.32175v-11.86803h10.78911v11.86803z" fill="#ffee5c" stroke-width="0"/><path d="M461.95292,140.60248v-11.86802h10.78912v11.86802z" fill="#ffee5c" stroke-width="0"/><path d="M444.01051,167.94987v-11.86803h10.78911v11.86803z" fill="#ffee5c" stroke-width="0"/><path d="M461.2731,167.94987v-11.86803h10.78912v11.86803z" fill="#ffee5c" stroke-width="0"/><path d="M444.01051,195.82175v-11.86803h10.78911v11.86803z" fill="#ffee5c" stroke-width="0"/><path d="M461.45292,195.10248v-11.86802h10.78912v11.86802z" fill="#ffee5c" stroke-width="0"/><path d="M443.51051,222.94987v-11.86803h10.78911v11.86803z" fill="#ffee5c" stroke-width="0"/><path d="M460.7731,222.94987v-11.86803h10.78912v11.86803z" fill="#ffee5c" stroke-width="0"/><path d="M443.51051,250.82175v-11.86803h10.78911v11.86803z" fill="#ffee5c" stroke-width="0"/><path d="M460.95292,250.10248v-11.86803h10.78912v11.86803z" fill="#ffee5c" stroke-width="0"/><path d="M400.01051,170.94987v-11.86803h10.78911v11.86803z" fill="#ffee5c" stroke-width="0"/><path d="M417.2731,170.94987v-11.86803h10.78912v11.86803z" fill="#ffee5c" stroke-width="0"/><path d="M400.01051,198.82175v-11.86803h10.78911v11.86803z" fill="#ffee5c" stroke-width="0"/><path d="M417.45292,198.10248v-11.86802h10.78912v11.86802z" fill="#ffee5c" stroke-width="0"/><path d="M399.01051,226.94987v-11.86803h10.78911v11.86803z" fill="#ffee5c" stroke-width="0"/><path d="M416.2731,226.94987v-11.86803h10.78912v11.86803z" fill="#ffee5c" stroke-width="0"/><path d="M399.01051,254.82175v-11.86803h10.78911v11.86803z" fill="#ffee5c" stroke-width="0"/><path d="M416.45292,254.10248v-11.86802h10.78912v11.86802z" fill="#ffee5c" stroke-width="0"/><path d="M503.51051,125.19986v-11.86803h10.78911v11.86803z" fill="#ffee5c" stroke-width="0"/><path d="M520.7731,125.19986v-11.86803h10.78912v11.86803z" fill="#ffee5c" stroke-width="0"/><path d="M503.51051,153.07175v-11.86803h10.78911v11.86803z" fill="#ffee5c" stroke-width="0"/><path d="M520.95292,152.35247v-11.86803h10.78912v11.86803z" fill="#ffee5c" stroke-width="0"/><path d="M504.51051,180.19987v-11.86803h10.78911v11.86803z" fill="#ffee5c" stroke-width="0"/><path d="M521.7731,180.19987v-11.86803h10.78912v11.86803z" fill="#ffee5c" stroke-width="0"/><path d="M504.51051,208.07175v-11.86803h10.78911v11.86803z" fill="#ffee5c" stroke-width="0"/><path d="M521.95292,207.35248v-11.86802h10.78912v11.86802z" fill="#ffee5c" stroke-width="0"/><path d="M504.01051,234.19987v-11.86803h10.78911v11.86803z" fill="#ffee5c" stroke-width="0"/><path d="M521.2731,234.19987v-11.86803h10.78912v11.86803z" fill="#ffee5c" stroke-width="0"/><path d="M504.01051,262.07175v-11.86803h10.78911v11.86803z" fill="#ffee5c" stroke-width="0"/><path d="M521.45292,261.35248v-11.86803h10.78912v11.86803z" fill="#ffee5c" stroke-width="0"/><path d="M-136.66077,130.68504c0,-2.34721 1.90279,-4.25 4.25,-4.25c2.34721,0 4.25,1.90279 4.25,4.25c0,2.34721 -1.90279,4.25 -4.25,4.25c-2.34721,0 -4.25,-1.90279 -4.25,-4.25z" fill="#ffffff" stroke-width="0.5"/><path d="M109.58548,37.59194c0,-2.34721 1.90279,-4.25 4.25,-4.25c2.34721,0 4.25,1.90279 4.25,4.25c0,2.34721 -1.90279,4.25 -4.25,4.25c-2.34721,0 -4.25,-1.90279 -4.25,-4.25z" fill="#ffffff" stroke-width="0.5"/><path d="M138.11401,37.59194c0,-2.34721 1.90279,-4.25 4.25,-4.25c2.34721,0 4.25,1.90279 4.25,4.25c0,2.34721 -1.90279,4.25 -4.25,4.25c-2.34721,0 -4.25,-1.90279 -4.25,-4.25z" fill="#ffffff" stroke-width="0.5"/><path d="M114.08998,85.63999c0,-2.34721 1.90279,-4.25 4.25,-4.25c2.34721,0 4.25,1.90279 4.25,4.25c0,2.34721 -1.90279,4.25 -4.25,4.25c-2.34721,0 -4.25,-1.90279 -4.25,-4.25z" fill="#ffffff" stroke-width="0.5"/><path d="M268.74464,30.08444c0,-2.34721 1.90279,-4.25 4.25,-4.25c2.34721,0 4.25,1.90279 4.25,4.25c0,2.34721 -1.90279,4.25 -4.25,4.25c-2.34721,0 -4.25,-1.90279 -4.25,-4.25z" fill="#ffffff" stroke-width="0.5"/><path d="M324.30019,40.59495c0,-2.34721 1.90279,-4.25 4.25,-4.25c2.34721,0 4.25,1.90279 4.25,4.25c0,2.34721 -1.90279,4.25 -4.25,4.25c-2.34721,0 -4.25,-1.90279 -4.25,-4.25z" fill="#ffffff" stroke-width="0.5"/><path d="M433.9098,30.08444c0,-2.34721 1.90279,-4.25 4.25,-4.25c2.34721,0 4.25,1.90279 4.25,4.25c0,2.34721 -1.90279,4.25 -4.25,4.25c-2.34721,0 -4.25,-1.90279 -4.25,-4.25z" fill="#ffffff" stroke-width="0.5"/><path d="M475.95184,57.11146c0,-2.34721 1.90279,-4.25 4.25,-4.25c2.34721,0 4.25,1.90279 4.25,4.25c0,2.34721 -1.90279,4.25 -4.25,4.25c-2.34721,0 -4.25,-1.90279 -4.25,-4.25z" fill="#ffffff" stroke-width="0.5"/><path d="M408.38428,40.59495c0,-2.34721 1.90279,-4.25 4.25,-4.25c2.34721,0 4.25,1.90279 4.25,4.25c0,2.34721 -1.90279,4.25 -4.25,4.25c-2.34721,0 -4.25,-1.90279 -4.25,-4.25z" fill="#ffffff" stroke-width="0.5"/><path d="M21.31003,55c0,-1.38071 1.11929,-2.5 2.5,-2.5c1.38071,0 2.5,1.11929 2.5,2.5c0,1.38071 -1.11929,2.5 -2.5,2.5c-1.38071,0 -2.5,-1.11929 -2.5,-2.5z" fill="#ffffff" stroke-width="0.5"/><path d="M24.31003,88c0,-1.38071 1.11929,-2.5 2.5,-2.5c1.38071,0 2.5,1.11929 2.5,2.5c0,1.38071 -1.11929,2.5 -2.5,2.5c-1.38071,0 -2.5,-1.11929 -2.5,-2.5z" fill="#ffffff" stroke-width="0.5"/><path d="M610.31003,256c0,-1.38071 1.11929,-2.5 2.5,-2.5c1.38071,0 2.5,1.11929 2.5,2.5c0,1.38071 -1.11929,2.5 -2.5,2.5c-1.38071,0 -2.5,-1.11929 -2.5,-2.5z" fill="#ffffff" stroke-width="0.5"/><path d="M618.31003,229c0,-1.38071 1.11929,-2.5 2.5,-2.5c1.38071,0 2.5,1.11929 2.5,2.5c0,1.38071 -1.11929,2.5 -2.5,2.5c-1.38071,0 -2.5,-1.11929 -2.5,-2.5z" fill="#ffffff" stroke-width="0.5"/><path d="M569.31003,88c0,-1.933 1.567,-3.5 3.5,-3.5c1.933,0 3.5,1.567 3.5,3.5c0,1.933 -1.567,3.5 -3.5,3.5c-1.933,0 -3.5,-1.567 -3.5,-3.5z" fill="#ffffff" stroke-width="0.5"/><path d="M532.31003,52c0,-1.933 1.567,-3.5 3.5,-3.5c1.933,0 3.5,1.567 3.5,3.5c0,1.933 -1.567,3.5 -3.5,3.5c-1.933,0 -3.5,-1.567 -3.5,-3.5z" fill="#ffffff" stroke-width="0.5"/><path d="M32.31003,141c0,-1.933 1.567,-3.5 3.5,-3.5c1.933,0 3.5,1.567 3.5,3.5c0,1.933 -1.567,3.5 -3.5,3.5c-1.933,0 -3.5,-1.567 -3.5,-3.5z" fill="#ffffff" stroke-width="0.5"/><path d="M75.31003,56c0,-1.933 1.567,-3.5 3.5,-3.5c1.933,0 3.5,1.567 3.5,3.5c0,1.933 -1.567,3.5 -3.5,3.5c-1.933,0 -3.5,-1.567 -3.5,-3.5z" fill="#ffffff" stroke-width="0.5"/><path d="M593.31003,83c0,-1.933 1.567,-3.5 3.5,-3.5c1.933,0 3.5,1.567 3.5,3.5c0,1.933 -1.567,3.5 -3.5,3.5c-1.933,0 -3.5,-1.567 -3.5,-3.5z" fill="#ffffff" stroke-width="0.5"/><path d="M584.31003,37c0,-1.933 1.567,-3.5 3.5,-3.5c1.933,0 3.5,1.567 3.5,3.5c0,1.933 -1.567,3.5 -3.5,3.5c-1.933,0 -3.5,-1.567 -3.5,-3.5z" fill="#ffffff" stroke-width="0.5"/><path d="M601.31003,173c0,-1.933 1.567,-3.5 3.5,-3.5c1.933,0 3.5,1.567 3.5,3.5c0,1.933 -1.567,3.5 -3.5,3.5c-1.933,0 -3.5,-1.567 -3.5,-3.5z" fill="#ffffff" stroke-width="0.5"/><path d="M623.31003,29c0,-1.933 1.567,-3.5 3.5,-3.5c1.933,0 3.5,1.567 3.5,3.5c0,1.933 -1.567,3.5 -3.5,3.5c-1.933,0 -3.5,-1.567 -3.5,-3.5z" fill="#ffffff" stroke-width="0.5"/><path d="M101.31003,16c0,-1.933 1.567,-3.5 3.5,-3.5c1.933,0 3.5,1.567 3.5,3.5c0,1.933 -1.567,3.5 -3.5,3.5c-1.933,0 -3.5,-1.567 -3.5,-3.5z" fill="#ffffff" stroke-width="0.5"/></g></g></svg>