<svg version="1.1" xmlns="http://www.w3.org/2000/svg" xmlns:xlink="http://www.w3.org/1999/xlink" width="260.2901" height="165.89751" viewBox="0,0,260.2901,165.89751"><g transform="translate(-42.89161,96.67637)"><g data-paper-data="{&quot;isPaintingLayer&quot;:true}" fill-rule="nonzero" stroke-width="0" stroke-linecap="butt" stroke-linejoin="miter" stroke-miterlimit="10" stroke-dasharray="" stroke-dashoffset="0" style="mix-blend-mode: normal"><path d="M74.57717,55.25873v-59.63594h222.92491v59.63594z" fill="#8b8b8b" stroke="#000000"/><path d="M100.31438,-5.1342v-51.49248h67.2263v51.49248z" fill="#26b700" stroke="none"/><path d="M113.90267,38.49139v-135.16776h42.19523v135.16776z" fill="#26b700" stroke="none"/><path d="M262.0045,69.22114v-85.19424h12.77915v85.19424z" fill="#ff0000" stroke="none"/><path d="M271.94382,60.70171v-66.73547h31.23789v66.73547z" fill="#ff0000" stroke="none"/><g fill="#ff9400" stroke="none"><path d="M42.89161,11.5492h44.71304v9.58137h-44.71304z"/><path d="M55.02802,20.49182h31.29914v15.33017h-31.29914z"/><path d="M45.44668,35.82199h40.88051v7.02635h-40.88051z"/></g><g fill="#fff700" stroke="none"><path d="M54.95208,15.73144h31.02537v6.64828h-31.02537z"/><path d="M63.37324,21.93654h21.71777v10.63728h-21.71777z"/><path d="M56.72494,32.57382h28.36605v4.8754h-28.36605z"/></g><path d="M206.62567,41.27548v-31.41906h37.70285v31.41906z" fill="#37608a" stroke="none"/></g></g></svg>