<svg version="1.1" xmlns="http://www.w3.org/2000/svg" xmlns:xlink="http://www.w3.org/1999/xlink" width="92.45609" height="71.2438" viewBox="0,0,92.45609,71.2438"><g transform="translate(-149.98571,-121.6562)"><g data-paper-data="{&quot;isPaintingLayer&quot;:true}" fill-rule="nonzero" stroke="none" stroke-linecap="butt" stroke-linejoin="miter" stroke-miterlimit="10" stroke-dasharray="" stroke-dashoffset="0" style="mix-blend-mode: normal"><path d="M161.4445,164.42214v-31.99356h69.92759v31.99356z" fill="#26b700" stroke-width="0"/><path d="M149.98571,179.99551v-21.45026h92.45609v21.45026z" fill="#26b700" stroke-width="0"/><path d="M180.91376,181.97143c0,6.03568 -5.00162,10.92857 -11.17143,10.92857c-6.16981,0 -11.17143,-4.89289 -11.17143,-10.92857c0,-6.03568 5.00162,-10.92857 11.17143,-10.92857c6.16981,0 11.17143,4.89289 11.17143,10.92857z" fill="#000000" stroke-width="0"/><path d="M229.48519,181.72857c0,5.36505 -4.78416,9.71429 -10.68571,9.71429c-5.90156,0 -10.68571,-4.34923 -10.68571,-9.71429c0,-5.36505 4.78416,-9.71429 10.68571,-9.71429c5.90156,0 10.68571,4.34923 10.68571,9.71429z" fill="#000000" stroke-width="0"/><path d="M168.28519,155.5v-16.51429h19.91429v16.51429z" fill="#c4ddbe" stroke-width="0"/><path d="M205.19948,156.47143v-15.05714h17.48571v15.05714z" fill="#c4ddbe" stroke-width="0"/><text transform="translate(156.56615,129.61448) scale(0.18597,0.17884)" font-size="40" xml:space="preserve" fill="#ff6d6d" fill-rule="nonzero" stroke="none" stroke-width="1" stroke-linecap="butt" stroke-linejoin="miter" stroke-miterlimit="10" stroke-dasharray="" stroke-dashoffset="0" font-family="Serif" font-weight="normal" text-anchor="start" style="mix-blend-mode: normal"><tspan x="0" dy="0">(N) Para sair do carro</tspan></text></g></g></svg>