<svg version="1.1" xmlns="http://www.w3.org/2000/svg" xmlns:xlink="http://www.w3.org/1999/xlink" width="709.62571" height="464.59462" viewBox="0,0,709.62571,464.59462"><g transform="translate(42.5707,90.15015)"><g stroke="none" stroke-width="0" stroke-miterlimit="10"><path d="M-20.73969,365.43544v-455.58559h687.7947v455.58559z" fill="#00ffeb"/><path d="M146.57659,357.92793v-300.30029h340.84084v300.30029z" fill="#9e9e9e"/><path d="M167.5976,332.4024v-21.47225h67.56757v21.47225z" fill="#ffffff"/><path d="M253.18318,300.90977v-14.31484h76.57658v14.31484z" fill="#ffffff"/><path d="M334.26427,275.14306v-11.45186h49.54955v11.45186z" fill="#ffffff"/><path d="M391.32133,259.39675v-8.5889h60.06006v8.5889z" fill="#ffffff"/><path d="M442.37238,237.9245v-11.45186h45.04505v11.45186z" fill="#ffffff"/><path d="M404.83485,202.13742v-11.45186h36.03604v11.45186z" fill="#ffffff"/><path d="M362.7928,176.37072v-11.45186h30.03003v11.45186z" fill="#ffffff"/><path d="M310.24024,147.74105v-18.60928h34.53453v18.60928z" fill="#ffffff"/><path d="M271.2012,117.67991v-8.5889h33.03303v8.5889z" fill="#ffffff"/><path d="M229.15917,96.20766v-15.74632h36.03604v15.74632z" fill="#ffffff"/><path d="M82.01201,66.1465v-10.02038h139.63964v10.02038z" fill="#ffffff"/><path d="M665.34538,344.4144v30.03007h-707.91608v-30.03007z" fill="#00d01d"/></g></g></svg>