<svg version="1.1" xmlns="http://www.w3.org/2000/svg" xmlns:xlink="http://www.w3.org/1999/xlink" width="707.62017" height="415.54898" viewBox="0,0,707.62017,415.54898"><g transform="translate(26.95458,41.10449)"><g stroke-miterlimit="10"><path d="M-26.95458,361.73509v-402.83958h707.62017v402.83958z" fill="#00ceff" stroke="none" stroke-width="0"/><path d="M667.34543,329.41442v45.03007h-684.64264v-45.03007z" fill="#00d01d" stroke="none" stroke-width="0"/><path d="M167.48778,329.15614l-7.63041,0.06423l-2.33722,-287.16969l231.27701,-1.94685l2.33722,287.16969l-4.38873,0.03694" fill="#ffffff" stroke-opacity="0.64314" stroke="#464646" stroke-width="10.5"/><path d="M158.02596,332.2936l0.0866,-2.49714l235.92727,-0.44384l-0.16456,2.64095z" fill="#ffffff" stroke="#000000" stroke-width="4.5"/><path d="M245.03448,230.97471v-13.0122h140.73548v13.0122z" fill="#828282" stroke="#000000" stroke-width="0"/><path d="M261.00017,231.1298v-13.4931h38.36136v13.4931z" fill-opacity="0.4902" fill="#a1a1a1" stroke="#000000" stroke-width="0"/><path d="M162.85523,45.95413v-20.81532h218.58092v20.81532z" fill="#828282" stroke="#000000" stroke-width="0"/><path d="M327.0504,183.17947v-13.0122h52.39511v13.0122z" fill="#a1a1a1" stroke="#000000" stroke-width="0"/><path d="M163.2565,45.97983v-20.56636h55.10799v20.56636z" fill-opacity="0.4902" fill="#a1a1a1" stroke="#000000" stroke-width="0"/><path d="M167.26903,144.231v-20.81532h216.88332v20.81532z" fill="#828282" stroke="#000000" stroke-width="0"/><path d="M326.97317,162.60226v-13.61244h53.87255v13.61244z" fill="#a1a1a1" stroke="#000000" stroke-width="0"/><path d="M166.91676,88.9457v-5.62576h41.06807v5.62576z" fill="#a1a1a1" stroke="#000000" stroke-width="0"/><path d="M166.91676,79.38189v-5.62576h41.06807v5.62576z" fill="#a1a1a1" stroke="#000000" stroke-width="0"/><path d="M166.91676,68.13037v-5.62576h41.06807v5.62576z" fill="#a1a1a1" stroke="#000000" stroke-width="0"/><path d="M166.35417,57.44143v-5.62576h41.06807v5.62576z" fill="#a1a1a1" stroke="#000000" stroke-width="0"/><path d="M167.12523,100.97368v-5.62576h41.06807v5.62576z" fill="#a1a1a1" stroke="#000000" stroke-width="0"/><path d="M167.8262,114.97161v-5.62576h41.06807v5.62576z" fill="#a1a1a1" stroke="#000000" stroke-width="0"/><path d="M325.86504,140.69804v-12.09478h55.10799v12.09478z" fill="#a1a1a1" stroke="#000000" stroke-width="0"/><path d="M168.35297,44.43421v-5.62576h41.06807v5.62576z" fill="#a1a1a1" stroke="#000000" stroke-width="0"/><path d="M167.35056,33.22773v-5.62576h41.06807v5.62576z" fill="#a1a1a1" stroke="#000000" stroke-width="0"/><path d="M327.2485,206.18667v-13.0122h52.39511v13.0122z" fill="#a1a1a1" stroke="#000000" stroke-width="0"/><path d="M326.09977,144.1096v-20.56636h55.10799v20.56636z" fill-opacity="0.4902" fill="#a1a1a1" stroke="#000000" stroke-width="0"/><path d="M326.76908,122.78234v-14.21268h53.87255v14.21268z" fill="#a1a1a1" stroke="#000000" stroke-width="0"/><path d="M166.9484,22.02125v-5.62576h41.06807v5.62576z" fill="#a1a1a1" stroke="#000000" stroke-width="0"/><path d="M261.64795,233.14828v-10.6607h35.70446v10.6607z" fill="#a1a1a1" stroke="#000000" stroke-width="0"/><path d="M261.73797,219.0539v-10.6607h35.70446v10.6607z" fill="#a1a1a1" stroke="#000000" stroke-width="0"/><path d="M261.00966,248.05826v-10.6607h35.70446v10.6607z" fill="#a1a1a1" stroke="#000000" stroke-width="0"/><path d="M260.55412,263.42378v-10.6607h35.70446v10.6607z" fill="#a1a1a1" stroke="#000000" stroke-width="0"/><path d="M259.91582,294.15483v-10.6607h35.70446v10.6607z" fill="#a1a1a1" stroke="#000000" stroke-width="0"/><path d="M260.27862,278.42378v-10.6607h35.70446v10.6607z" fill="#a1a1a1" stroke="#000000" stroke-width="0"/></g></g></svg>