<svg version="1.1" xmlns="http://www.w3.org/2000/svg" xmlns:xlink="http://www.w3.org/1999/xlink" width="91.12051" height="124.50359" viewBox="0,0,91.12051,124.50359"><g transform="translate(-189.97018,-143.5)"><g stroke-miterlimit="10"><path d="M191.47018,232.76897v-87.76897h87.76897v87.76897z" fill="#5a5a5a" stroke="#000000" stroke-width="3"/><text transform="translate(206.92999,251.48613) scale(0.4641,0.4641)" font-size="40" xml:space="preserve" fill="#ffffff" stroke="none" stroke-width="1" font-family="Pixel" font-weight="normal" text-anchor="start"><tspan x="0" dy="0">Luvas</tspan></text><text transform="translate(220.81597,265.27852) scale(0.25953,0.25953)" font-size="40" xml:space="preserve" fill="#ffffff" stroke="none" stroke-width="1" font-family="Pixel" font-weight="normal" text-anchor="start"><tspan x="0" dy="0">R$ 25</tspan></text><path d="M207.12016,231.26776v-46.54085h60.76166v46.54085z" fill="#26b700" stroke="none" stroke-width="0"/><path d="M217.63281,216.84769v-67.60756h41.23973v67.60756z" fill="#26b700" stroke="none" stroke-width="0"/><g stroke="none" stroke-width="0"><path d="M207.17632,231.16628v-7.75337h16.43962v7.75337z" fill="#9bb894"/><path d="M207.14683,231.2236v-4.74454h16.48869v4.74454z" fill="#3c3c3c"/><path d="M209.61559,228.1508v-4.74454h3.08338v4.74454z" fill="#3c3c3c"/><path d="M217.38843,228.13906v-4.74454h3.08338v4.74454z" fill="#3c3c3c"/></g><g stroke="none" stroke-width="0"><path d="M251.38747,231.32551v-7.75337h16.43962v7.75337z" fill="#9bb894"/><path d="M251.35798,231.38283v-4.74454h16.48869v4.74454z" fill="#3c3c3c"/><path d="M253.82674,228.31003v-4.74454h3.08338v4.74454z" fill="#3c3c3c"/><path d="M261.59958,228.29828v-4.74454h3.08338v4.74454z" fill="#3c3c3c"/></g><text transform="translate(197.88844,195.73894) rotate(-23.73977) scale(0.29215,0.29215)" font-size="40" xml:space="preserve" fill="#ffffff" stroke="none" stroke-width="1" font-family="Pixel" font-weight="normal" text-anchor="start"><tspan x="0" dy="0">Item Comprado</tspan></text></g></g></svg>