<svg version="1.1" xmlns="http://www.w3.org/2000/svg" xmlns:xlink="http://www.w3.org/1999/xlink" width="93.46407" height="133.86754" viewBox="0,0,93.46407,133.86754"><g transform="translate(-250.48398,-141.49632)"><g stroke-miterlimit="10"><path d="M255.22017,225.68172v-82.6854h82.6854v82.6854z" fill="#103879" stroke="#000000" stroke-width="3"/><text transform="translate(250.92523,236.81267) scale(0.24068,0.24068)" font-size="40" xml:space="preserve" fill="#ffffff" stroke="none" stroke-width="1" font-family="Pixel" font-weight="normal" text-anchor="start"><tspan x="0" dy="0">Servidor Privado </tspan><tspan x="0" dy="48px">       [PlateCity]</tspan></text><text transform="translate(296.06009,157.93911) scale(0.22099,0.22099)" font-size="40" xml:space="preserve" fill="#ffffff" stroke="none" stroke-width="1" font-family="Pixel" font-weight="normal" text-anchor="start"><tspan x="0" dy="0">Private</tspan><tspan x="0" dy="46.150000000000006px">Server</tspan></text><path d="M268.54833,224.74445v-42.3235h21.45164v42.3235z" fill="#818181" stroke="none" stroke-width="0"/><path d="M306.81341,223.58491v-35.94599h16.81345v35.94599z" fill="#818181" stroke="none" stroke-width="0"/><path d="M270.28765,199.81417v-5.21797h9.85616v5.21797z" fill="#d6fc0f" stroke="none" stroke-width="0"/><path d="M270.86742,211.98943v-6.95729h12.75503v6.95729z" fill="#d6fc0f" stroke="none" stroke-width="0"/><path d="M312.61115,199.81417v-7.53706h2.89887v7.53706z" fill="#d6fc0f" stroke="none" stroke-width="0"/><path d="M320.14821,202.13327v-8.69661h3.47864v8.69661z" fill="#d6fc0f" stroke="none" stroke-width="0"/><path d="M307.39319,206.77146v-5.79774h4.63819v5.79774z" fill="#d6fc0f" stroke="none" stroke-width="0"/><path d="M316.0898,214.30852v-3.47864h3.47864v3.47864z" fill="#d6fc0f" stroke="none" stroke-width="0"/><text transform="translate(274.84332,260.89761) scale(0.2445,0.2445)" font-size="40" xml:space="preserve" fill="#ffffff" stroke="none" stroke-width="1" font-family="Pixel" font-weight="normal" text-anchor="start"><tspan x="0" dy="0">Gamepass </tspan><tspan x="0" dy="48px">Comprada</tspan></text></g></g></svg>