<svg version="1.1" xmlns="http://www.w3.org/2000/svg" xmlns:xlink="http://www.w3.org/1999/xlink" width="50.19895" height="102" viewBox="0,0,50.19895,102"><g transform="translate(-166.5,-96)"><g data-paper-data="{&quot;isPaintingLayer&quot;:true}" fill-rule="nonzero" stroke="none" stroke-linecap="butt" stroke-linejoin="miter" stroke-miterlimit="10" stroke-dasharray="" stroke-dashoffset="0" style="mix-blend-mode: normal"><path d="M175.0445,127.50785v-31.50785h32.04188v31.50785z" fill="#26b700" stroke-width="0"/><path d="M166.5,165.42408v-38.45026h50.19895v38.45026z" fill="#26b700" stroke-width="0"/><path d="M175.0445,198v-100.93194h31.50785v100.93194z" fill="#26b700" stroke-width="0"/><path d="M177.80587,113.12379v-12.87379h11.75971v12.87379z" fill="#000000" stroke-width="0"/><path d="M191.47091,112.92476v-12.87378h11.75971v12.87378z" fill="#000000" stroke-width="0"/><path d="M174.81557,107.05825c0,-1.3321 5.4717,-3.1187 6.48109,-1.35227c0.58948,0.3479 0.98493,0.98959 0.98493,1.72363c0,1.10457 -0.89543,2 -2,2c-0.34446,0 -0.66858,-0.08708 -0.95155,-0.24043c-2.1138,0.49782 -4.51447,0.07872 -4.51447,-2.13093z" fill="#000000" stroke-width="0.5"/><path d="M188.83484,105.04579c4.11858,-0.19284 8.15835,1.55971 12.49181,1.00275c1.59481,-0.20497 5.34087,-1.57267 5.34087,1.50485c0,3.73025 -13.33456,2.45263 -15.06252,2.06407c-0.75781,-0.17041 -4.26576,-0.18762 -4.3371,-1.47167c-0.20322,-0.31305 -0.32126,-0.68652 -0.32126,-1.08755c0,-0.98221 0.70803,-1.79904 1.64154,-1.96797c0.07751,-0.02505 0.15949,-0.04041 0.24665,-0.04449z" fill="#000000" stroke-width="0.5"/><path d="M186.55263,107.7961c-1.23299,0.2055 -1.43849,-1.02749 -1.43849,-1.02749l-0.13711,-0.85235c-0.07916,-1.02916 -0.16121,-2.05809 -0.24694,-3.08672c0,0 -0.10381,-1.24568 1.14188,-1.34949c1.24568,-0.10381 1.34949,1.14188 1.34949,1.14188c0.08616,1.03392 0.16863,2.06815 0.24821,3.1026l0.11046,0.63309c0,0 0.2055,1.23299 -1.02749,1.43849z" fill="#fafafa" stroke-width="0.5"/><path d="M200.58256,108.06068c-1.25,0 -1.25,-1.25 -1.25,-1.25l0.02427,-0.25c-0.19059,-0.97517 -0.26809,-1.97483 -0.27185,-2.96845c0,0 0,-1.25 1.25,-1.25c1.25,0 1.25,1.25 1.25,1.25c-0.0037,0.82939 0.0563,1.66574 0.2233,2.47816l0.02427,0.74029c0,0 0,1.25 -1.25,1.25z" fill="#fafafa" stroke-width="0.5"/></g></g></svg>