<svg version="1.1" xmlns="http://www.w3.org/2000/svg" xmlns:xlink="http://www.w3.org/1999/xlink" width="730.98799" height="465.48625" viewBox="0,0,730.98799,465.48625"><g transform="translate(39.2704,91.04178)"><g stroke="none" stroke-width="0" stroke-miterlimit="10"><path d="M-39.2704,361.68168v-452.72346h730.98799v452.72346z" fill="#00ceff"/><path d="M203.33177,310.30438l-92.75466,-120.41832l11.09116,-8.54319l92.75466,120.41833z" fill="#ffffff"/><path d="M107.30104,288.73931l110.81552,-104.03808l9.58245,10.20669l-110.81551,104.03808z" fill="#ffffff"/><path d="M667.3454,329.4144v45.03007h-678.64264v-45.03007z" fill="#00d01d"/><path d="M99.50001,332.82362v-160h31v160z" fill="#706c6c"/><path d="M198.50002,335.82362v-162h34v162z" fill="#706c6c"/><path d="M233.16457,232.70764l-132.05293,1.50024l-0.27616,-26.26828l132.05294,-1.50025z" fill="#706c6c"/><path d="M227.16457,298.4375l-127.06337,1.77038l-0.26573,-30.99815l127.06337,-1.77038z" fill="#706c6c"/><path d="M324.50002,330.82362c0,0 -11.33848,-154.57498 40,-238c51.33848,-83.42502 56.50741,-41.65616 89,9c32.49259,50.65616 32,229 32,229z" fill="#615858"/><path d="M287.50002,293.82362l18.06452,-28l21.93549,-34v62z" fill="#ff0000"/><path d="M480.50001,296.82362v-62l23.03226,34l18.96774,28z" fill="#ff0000"/><path d="M531.66668,328.82362v-306h23.66667v306z" fill="#e7dada"/><path d="M330.50002,121.82362l77,-84l2,-1l75,85z" fill="#c32828"/><path d="M428.50001,171.32362c0,15.74012 -11.19288,28.5 -25,28.5c-13.80712,0 -25,-12.75988 -25,-28.5c0,-15.74012 11.19288,-28.5 25,-28.5c13.80712,0 25,12.75988 25,28.5z" fill="#2999c2"/><path d="M380.66669,206.82362v-17h172.66667v17z" fill="#d6d6d6"/><path d="M418.66669,84.82362v-17h132.66667v17z" fill="#d6d6d6"/><g fill="#e8dada"><g><path d="M519.0229,88.82362v-6h35.47713v6z"/><path d="M519.0229,106.82362v-6h35.47713v6z"/><path d="M518.25165,126.82362v-6h35.47713v6z"/><path d="M519.0229,71.82362v-6h35.47713v6z"/><path d="M516.70917,145.82362v-6h35.47713v6z"/></g><g><path d="M517.48041,179.82362v-6h35.47713v6z"/><path d="M517.48041,197.82362v-6h35.47713v6z"/><path d="M516.70917,217.82362v-6h35.47713v6z"/><path d="M517.48041,162.82361v-6h35.47713v6z"/><path d="M515.16668,236.82362v-6h35.47713v6z"/></g></g><g fill="#e8dada"><path d="M517.02289,272.15695v-6h35.47713v6z"/><path d="M517.02289,290.15695v-6h35.47713v6z"/><path d="M516.25165,310.15695v-6h35.47713v6z"/><path d="M517.02289,255.15695v-6h35.47713v6z"/><path d="M514.70917,329.15695v-6h35.47713v6z"/></g></g></g></svg>