<svg version="1.1" xmlns="http://www.w3.org/2000/svg" xmlns:xlink="http://www.w3.org/1999/xlink" width="25.57733" height="26.625" viewBox="0,0,25.57733,26.625"><g transform="translate(-246.2416,-98.53504)"><g data-paper-data="{&quot;isPaintingLayer&quot;:true}" fill-rule="nonzero" stroke-linecap="butt" stroke-linejoin="miter" stroke-miterlimit="10" stroke-dasharray="" stroke-dashoffset="0" style="mix-blend-mode: normal"><path d="M270.6082,111.93087c0,6.58923 -5.17295,11.93087 -11.5541,11.93087c-6.38115,0 -11.5541,-5.34163 -11.5541,-11.93087c0,-6.58923 5.17295,-11.93087 11.5541,-11.93087c6.38115,0 11.5541,5.34163 11.5541,11.93087z" fill="#ffffff" stroke="#000000" stroke-width="2"/><path d="M253.34051,115.4491v-11.49262h11.86943v11.49262z" fill="#00af02" stroke="none" stroke-width="0"/><path d="M255.4365,122.60844v-9.51438h7.58325v9.51438z" fill="#00af02" stroke="none" stroke-width="0"/><path d="M255.79876,122.25617c0.00439,-0.00021 0.01102,0.00084 0.01961,0.00298c0.00224,-0.00003 0.00448,-0.00005 0.00672,-0.00005c0.12984,0 0.2474,0.05253 0.3326,0.13751c0.19739,0.08625 0.40479,0.17748 0.42364,0.16168c0.53031,-0.44424 1.17763,-0.13712 1.85743,-0.13434c0.70161,0.00287 1.42175,0.00399 2.11996,-0.0471c0.65037,-0.04759 1.16125,-0.5446 1.81061,-0.5446c0.9692,0 0.71411,1.20347 0.14408,1.54549c-0.42423,0.25454 -1.19711,0.2448 -1.68985,0.29438c-1.15501,0.11623 -2.1324,0.21862 -3.30285,0.02355c-0.25927,-0.04321 -2.07007,-0.3329 -2.09098,-0.70945c-0.04786,-0.07372 -0.07566,-0.16168 -0.07566,-0.25612c0,-0.23131 0.16674,-0.42368 0.38659,-0.46347c0.01826,-0.0059 0.03756,-0.00952 0.05809,-0.01048z" fill="#00af02" stroke="none" stroke-width="0.5"/><path d="M270.81893,111.84754c0,6.80001 -5.27797,12.3125 -11.78867,12.3125c-6.5107,0 -11.78867,-5.51249 -11.78867,-12.3125c0,-6.80001 5.27797,-12.3125 11.78867,-12.3125c6.5107,0 11.78867,5.51249 11.78867,12.3125z" fill="none" stroke="#000000" stroke-width="2"/></g></g></svg>