<svg version="1.1" xmlns="http://www.w3.org/2000/svg" xmlns:xlink="http://www.w3.org/1999/xlink" width="50.78521" height="102.47189" viewBox="0,0,50.78521,102.47189"><g transform="translate(-167.21981,-95.40661)"><g data-paper-data="{&quot;isPaintingLayer&quot;:true}" fill-rule="nonzero" stroke="none" stroke-linecap="butt" stroke-linejoin="miter" stroke-miterlimit="10" stroke-dasharray="" stroke-dashoffset="0" style="mix-blend-mode: normal"><path d="M198.61989,136.32098c-0.49319,0.00281 -0.49599,-0.49037 -0.49599,-0.49037l-0.00059,-0.10308c-0.00639,-1.15092 -0.23934,-1.69286 -0.47464,-2.75317c-0.42264,-1.90449 0.48049,-3.90127 -0.44787,-5.70239c0,0 -0.22056,-0.44112 0.22056,-0.66169c0.44112,-0.22056 0.66169,0.22056 0.66169,0.22056c0.9625,1.97388 0.05205,3.90432 0.52729,5.9241c0.25434,1.08095 0.49247,1.79134 0.49933,2.96696l0.00059,0.10308c0,0 0.00281,0.49319 -0.49037,0.496z" fill="#000000" stroke-width="0.5"/><g><path d="M167.21981,164.47649v-39.03691h50.31859v39.03691z" fill="#26b700" stroke-width="0"/><path d="M176.10955,197.8785v-102.47189h31.58295v102.47189z" fill="#26b700" stroke-width="0"/><path d="M175.4455,164.0284v-38.82842h32.48818v38.82842z" fill="#0032fc" stroke-width="0"/><path d="M167.32346,143.62703v-18.42704h50.68156v18.42704z" fill="#0032fc" stroke-width="0"/><text transform="translate(178.46572,149.99197) scale(0.52249,0.5292)" font-size="40" xml:space="preserve" fill="#00eafc" fill-rule="nonzero" stroke="none" stroke-width="1" stroke-linecap="butt" stroke-linejoin="miter" stroke-miterlimit="10" stroke-dasharray="" stroke-dashoffset="0" font-family="Sans Serif" font-weight="normal" text-anchor="start" style="mix-blend-mode: normal"><tspan x="0" dy="0">☕</tspan></text></g></g></g></svg>