<svg version="1.1" xmlns="http://www.w3.org/2000/svg" xmlns:xlink="http://www.w3.org/1999/xlink" width="106.20484" height="43.73937" viewBox="0,0,106.20484,43.73937"><g transform="translate(-135.19961,-79.86826)"><g data-paper-data="{&quot;isPaintingLayer&quot;:true}" fill-rule="nonzero" stroke="none" stroke-linecap="butt" stroke-linejoin="miter" stroke-miterlimit="10" stroke-dasharray="" stroke-dashoffset="0" style="mix-blend-mode: normal"><path d="M175.04451,96.00001h32.04188v23.94597c-5.99657,0.16773 -12.1226,-0.12396 -17.35888,-0.12396c-4.31814,0 -8.63737,1.68735 -12.89085,2.04442c-0.57864,0.04858 -1.19117,0.15057 -1.79214,0.18875z" fill="#002dff" stroke-width="0"/><path d="" fill="#00ffff" stroke-width="0"/><path d="M175.04451,97.06807h31.50785v22.89165c-5.82525,0.13695 -11.74392,-0.1377 -16.82485,-0.1377c-4.31814,0 -8.63737,1.68735 -12.89085,2.04442c-0.57864,0.04858 -1.19117,0.15057 -1.79214,0.18875z" fill="#002dff" stroke-width="0"/><text transform="translate(135.35873,93.46375) scale(0.31823,0.31823)" font-size="40" xml:space="preserve" fill="#ffffff" fill-rule="nonzero" stroke="none" stroke-width="1" stroke-linecap="butt" stroke-linejoin="miter" stroke-miterlimit="10" stroke-dasharray="" stroke-dashoffset="0" font-family="Sans Serif" font-weight="normal" text-anchor="start" style="mix-blend-mode: normal"><tspan x="0" dy="0">TheVoidGuardian</tspan></text><path d="M174.2786,122.05969h0.68973c-0.23283,0.01264 -0.46362,0.01493 -0.68973,0z" fill="#ffffff" stroke-width="0"/><path d="" fill="#ffffff" stroke-width="0"/><path d="" fill="#ffffff" stroke-width="0"/><path d="M174.86894,123.60763v-16.28166h32.13858v16.28166z" fill="#002dff" stroke-width="0"/></g></g></svg>