<svg version="1.1" xmlns="http://www.w3.org/2000/svg" xmlns:xlink="http://www.w3.org/1999/xlink" width="50.54855" height="102.47189" viewBox="0,0,50.54855,102.47189"><g transform="translate(-247.11617,-95.40663)"><g stroke="none" stroke-miterlimit="10"><path d="M278.6199,136.32099c-0.49319,0.00281 -0.49599,-0.49037 -0.49599,-0.49037l-0.00059,-0.10308c-0.00639,-1.15092 -0.23934,-1.69286 -0.47464,-2.75317c-0.42264,-1.90449 0.48049,-3.90127 -0.44787,-5.70239c0,0 -0.22056,-0.44112 0.22056,-0.66169c0.44112,-0.22056 0.66169,0.22056 0.66169,0.22056c0.9625,1.97388 0.05205,3.90432 0.52729,5.9241c0.25434,1.08095 0.49247,1.79134 0.49933,2.96696l0.00059,0.10308c0,0 0.00281,0.49319 -0.49037,0.496z" fill="#000000" stroke-width="0.5"/><path d="M247.21982,164.4765v-39.03691h50.31859v39.03691z" fill="#26b700" stroke-width="0"/><path d="M256.10956,197.87853v-102.47189h31.58295v102.47189z" fill="#26b700" stroke-width="0"/><path d="M255.95189,164.52767v-39.14385h31.66793v39.14385z" fill="#ffffff" stroke-width="0"/><path d="M247.11617,143.88167v-18.49786h50.54855v18.49786z" fill="#ffffff" stroke-width="0"/><path d="M256.47741,127.29547v-2.48646h31.66089v2.48646z" fill="#ff0000" stroke-width="0"/></g></g></svg>