<svg version="1.1" xmlns="http://www.w3.org/2000/svg" xmlns:xlink="http://www.w3.org/1999/xlink" width="51.06499" height="101.82084" viewBox="0,0,51.06499,101.82084"><g transform="translate(-166.23085,-95.37894)"><g data-paper-data="{&quot;isPaintingLayer&quot;:true}" fill-rule="nonzero" stroke="none" stroke-linecap="butt" stroke-linejoin="miter" stroke-miterlimit="10" stroke-dasharray="" stroke-dashoffset="0" style="mix-blend-mode: normal"><path d="M198.61989,136.32097c-0.49319,0.00281 -0.49599,-0.49037 -0.49599,-0.49037l-0.00059,-0.10308c-0.00639,-1.15092 -0.23934,-1.69286 -0.47464,-2.75317c-0.42264,-1.90449 0.48049,-3.90127 -0.44787,-5.70239c0,0 -0.22056,-0.44112 0.22056,-0.66169c0.44112,-0.22056 0.66169,0.22056 0.66169,0.22056c0.9625,1.97388 0.05205,3.90432 0.52729,5.9241c0.25434,1.08095 0.49247,1.79134 0.49933,2.96696l0.00059,0.10308c0,0 0.00281,0.49319 -0.49037,0.496z" fill="#000000" stroke-width="0.5"/><g stroke-width="0"><path d="M166.23085,163.73214v-39.11361h51.06499v39.11361z" fill="#00b2d6"/><path d="M175.25246,197.19978v-71.87127h32.05144v71.87127z" fill="#00b2d6"/><path d="M175.61595,124.71415v-29.33522h33.02928v29.33522z" fill="#00b2d6"/><path d="M177.4462,123.61088v-26.89061h29.11792v26.89061z" fill="#26b700"/><path d="M201.92339,144.88531c0,8.77576 -4.0496,15.8899 -9.04502,15.8899c-4.99543,0 -9.04502,-7.11416 -9.04502,-15.8899c0,-8.77576 4.0496,-15.8899 9.04502,-15.8899c4.99543,0 9.04502,7.11416 9.04502,15.8899z" fill="#ffffff"/></g></g></g></svg>