<svg version="1.1" xmlns="http://www.w3.org/2000/svg" xmlns:xlink="http://www.w3.org/1999/xlink" width="703.77177" height="488.7813" viewBox="0,0,703.77177,488.7813"><g transform="translate(32.27926,86.55908)"><g stroke="none" stroke-width="0" stroke-miterlimit="10"><path d="M-32.27926,331.47801v-418.03709h703.77177v418.03709z" fill="#00ffeb"/><path d="M-11.29728,402.22222v-76.57657h676.64264v76.57657z" fill="#00d01d"/><path d="M250.75077,331.86637v-296.31081h168.16817v296.31081z" fill="#b3b3b3"/><path d="M418.35137,35.49197c0,8.28427 -37.38422,15 -83.5,15c-46.11578,0 -83.5,-6.71573 -83.5,-15c0,-8.28427 37.38422,-15 83.5,-15c46.11578,0 83.5,6.71573 83.5,15z" fill="#989898"/><path d="M244.42313,329.39939v-15.87079h47.61238v15.87079z" fill="#ffffff"/><path d="M304.73213,306.12223v-10.58053h53.9607v10.58053z" fill="#ffffff"/><path d="M361.867,287.07728v-8.46442h34.91575v8.46442z" fill="#ffffff"/><path d="M402.07301,275.4387v-6.34832h42.32211v6.34832z" fill="#ffffff"/><path d="M438.04681,259.5679v-8.46442h31.74159v8.46442z" fill="#ffffff"/><path d="M411.59548,233.11659v-8.46442h25.39327v8.46442z" fill="#ffffff"/><path d="M381.97001,214.07163v-8.46442h21.16106v8.46442z" fill="#ffffff"/><path d="M344.93815,192.91058v-13.75469h24.33521v13.75469z" fill="#ffffff"/><path d="M317.42877,170.69147v-6.34832h23.27716v6.34832z" fill="#ffffff"/><path d="M287.80331,154.82068v-11.63858h25.39327v11.63858z" fill="#ffffff"/><path d="M256.49852,132.99197v-9h36v9z" fill="#ffffff"/><path d="M293.49852,104.99197v-7h42v7z" fill="#ffffff"/><path d="M346.49852,89.99197v-5h40v5z" fill="#ffffff"/><path d="M377.49852,63.99197v-6h35v6z" fill="#ffffff"/></g></g></svg>