<svg version="1.1" xmlns="http://www.w3.org/2000/svg" xmlns:xlink="http://www.w3.org/1999/xlink" width="707.61053" height="578.36036" viewBox="0,0,707.61053,578.36036"><g transform="translate(48.53572,130.68069)"><g stroke-miterlimit="10"><path d="M-48.53572,447.67967v-578.36036h707.61053v578.36036z" fill="#4b4b4b" stroke="none" stroke-width="NaN"/><path d="M105.85591,352.01249v-334.83483h439.94145v334.83484z" fill="#ffffff" stroke="none" stroke-width="0"/><path d="M104.35291,353.39885v-336.33634h439.93994v336.33634z" fill="none" stroke="#000000" stroke-width="4"/><path d="M105.34841,353.4599v-170.66967h147.65315v170.66967z" fill="none" stroke="#000000" stroke-width="4"/><path d="M251.99555,352.35502v-169.66967h143.93093v169.66967z" fill="none" stroke="#000000" stroke-width="4"/><path d="M395.13369,352.06922v-169.17567h148.43543v169.17568z" fill="none" stroke="#000000" stroke-width="4"/><path d="M159.81687,204.90257v-55h50v55z" fill="#ffffff" stroke="#ffffff" stroke-width="4"/><path d="M308.81688,200.90257v-55h50v55z" fill="#ffffff" stroke="#ffffff" stroke-width="4"/><path d="M454.81688,204.90257v-55h50v55z" fill="#ffffff" stroke="#ffffff" stroke-width="4"/><path d="M174.81688,219.90257v-55h50v55z" fill="#ffffff" stroke="#ffffff" stroke-width="4"/><path d="M403.31688,109.55573v-90h139v90z" fill="#969696" stroke="#000000" stroke-width="3.5"/><path d="M397.36465,351.59884v-169h137.5v169z" fill="#ffd200" stroke="#000000" stroke-width="4"/><path d="M389.31688,89.55573v-37h16.33333v37z" fill="#ffffff" stroke="none" stroke-width="0"/><path d="M449.81688,183.83277v-2.5h68v2.5z" fill="none" stroke="#7c4200" stroke-width="4"/><path d="M305.81688,184.83277v-4h57v4z" fill="none" stroke="#904c00" stroke-width="4"/><path d="M158.98355,184.87371v-3.231h66v3.231z" fill="none" stroke="#904c00" stroke-width="4"/><path d="M113.31688,314.58275v-68h26v68z" fill="#7b6000" stroke="none" stroke-width="0"/><path d="M121.31688,303.58275v-49h8v49z" fill="#000000" stroke="none" stroke-width="0"/><path d="M189.31688,306.83275v-55h47v55z" fill="none" stroke="#303030" stroke-width="1.5"/><path d="M221.98354,306.24942v-54.66667h14v54.66667z" fill="none" stroke="#303030" stroke-width="1.5"/><path d="M222.31688,279.58275v-0.33333h12.33333v0.33333z" fill="none" stroke="#303030" stroke-width="1.5"/><path d="M154.56688,305.07427v-43h21v43z" fill="#001aff" stroke="#303030" stroke-width="1.5"/><path d="M229.10777,244.24994v-58.87371h20.96374v58.87371z" fill="none" stroke="#303030" stroke-width="1.5"/><path d="M257.31688,316.58275v-68h26v68z" fill="#7b6000" stroke="none" stroke-width="0"/><path d="M265.31688,305.58275v-49h8v49z" fill="#000000" stroke="none" stroke-width="0"/><path d="M333.31688,308.58275v-55h47v55z" fill="none" stroke="#303030" stroke-width="1.5"/><path d="M365.98354,308.24942v-54.66667h14v54.66667z" fill="none" stroke="#303030" stroke-width="1.5"/><path d="M366.31688,281.58275v-0.33333h12.33334v0.33333z" fill="none" stroke="#303030" stroke-width="1.5"/><path d="M298.31688,303.58275v-43h21v43z" fill="#9eff00" stroke="#303030" stroke-width="1.5"/><path d="M255.57697,238.58277v-53h36.73991v53z" fill="none" stroke="#303030" stroke-width="1.5"/><path d="M371.31688,245.58277v-61h21.66667v61z" fill="none" stroke="#303030" stroke-width="1.5"/><path d="M511.72691,319.32759l0.4607,-58.14528l16.82195,0.22926l-0.46069,58.14529z" fill="#7b6000" stroke="none" stroke-width="0"/><path d="M518.45489,313.09664l0.40129,-48.34618l6.01473,0.08468l-0.40129,48.34618z" fill="#000000" stroke="none" stroke-width="0"/><path d="M404.12719,344.43444v-63.66739h55.99379v63.66739c0,0 -15.58591,0 -24.20267,0c-9.87564,0 -31.79111,0 -31.79111,0z" fill="none" stroke="#303030" stroke-width="1.5"/><path d="M404.30323,343.98503v-21.28596h55.99173v21.28596z" fill="none" stroke="#303030" stroke-width="1.5"/><path d="M431.97974,343.10509v-19.71879h0.75101v19.71879z" fill="none" stroke="#303030" stroke-width="1.5"/><path d="M451.2451,274.90623l-43.3295,-0.33171l0.16076,-20.99938l43.3295,0.33171z" fill="#ff0000" stroke="#303030" stroke-width="1.5"/><path d="M400.18143,222.12024v-37.75008h42.07247v37.75008z" fill="none" stroke="#303030" stroke-width="1.5"/><path d="M256.01431,65.64246c0,19.88225 -27.9822,36 -62.5,36c-34.5178,0 -62.5,-16.11775 -62.5,-36c0,-19.88225 27.9822,-36 62.5,-36c34.5178,0 62.5,16.11775 62.5,36z" fill="#ff0000" stroke="none" stroke-width="0"/><path d="M513.79317,236.76534v-35.45962h17.31749v35.45962z" fill="#ff9200" stroke="#303030" stroke-width="1.5"/><path d="M539.76788,351.53005v-160.98949h30.04409v160.98949z" fill="#ffd200" stroke="none" stroke-width="0"/><path d="M535.61827,353.02477v-164.65765h36.35737v164.65765z" fill="none" stroke="#000000" stroke-width="4"/><path d="M535.1162,343.52994v-154.98813h2.66377v154.98814z" fill="none" stroke="#303030" stroke-width="4"/><path d="M534.93705,350.21031v-103.0399h3.1462v103.03991z" fill="none" stroke="#000000" stroke-width="4"/><path d="M544.05304,188.69651v-0.17336h2.6462v0.17336z" fill="none" stroke="#000000" stroke-width="4"/><path d="M107.30774,237.21217v-53h36.73992v53z" fill="none" stroke="#303030" stroke-width="1.5"/><path d="M534.80076,188.67284v-6.103h7.80858v6.103z" fill="#000000" stroke="#000000" stroke-width="4"/></g></g></svg>