<svg version="1.1" xmlns="http://www.w3.org/2000/svg" xmlns:xlink="http://www.w3.org/1999/xlink" width="81.90768" height="79.25962" viewBox="0,0,81.90768,79.25962"><g transform="translate(-68.50025,-246.43494)"><g stroke-miterlimit="10"><path d="M149.15793,286.06476c0,21.19658 -17.77602,38.37981 -39.70384,38.37981c-21.92783,0 -39.70384,-17.18322 -39.70384,-38.37981c0,-21.19658 17.77602,-38.37981 39.70384,-38.37981c21.92783,0 39.70384,17.18322 39.70384,38.37981z" fill-opacity="0.54902" fill="#808080" stroke="#000000" stroke-width="2.5"/><g fill="#616161" stroke="none" stroke-width="0"><path d="M99.69411,278.16551v-18.32683h19.53254v18.32683z"/><path d="M102.06596,301.51675v-23.39082h14.95083v23.39082z"/><path d="M96.36009,310.48724l7.13781,-13.52641l7.28061,1.53485l-7.13781,13.52641z"/><path d="M115.99773,311.50023l-7.13781,-13.52641l7.2806,-1.53484l7.13781,13.52641z"/><path d="M101.86322,289.76983l-12.29027,-9.10282l5.89843,-4.53558l12.29027,9.10282z"/><path d="M110.74746,286.46395l11.44664,-10.14329l6.27266,4.00208l-11.44664,10.14329z"/></g></g></g></svg>