<svg version="1.1" xmlns="http://www.w3.org/2000/svg" xmlns:xlink="http://www.w3.org/1999/xlink" width="733.31837" height="518.25933" viewBox="0,0,733.31837,518.25933"><g transform="translate(44.07901,79.32089)"><g stroke-miterlimit="10"><path d="M-28.03408,370.58752v-393.39339h717.27344v393.3934z" fill="#896000" stroke="none" stroke-width="0" stroke-linecap="butt"/><path d="M497.25225,4.54955l-4.5045,400.9009" fill="none" stroke="#000000" stroke-width="7" stroke-linecap="round"/><path d="M102.01789,-34.32089l-4.50451,400.9009" fill="none" stroke="#000000" stroke-width="7" stroke-linecap="round"/><path d="M181.01789,-33.57089l-4.5045,400.9009" fill="none" stroke="#000000" stroke-width="7" stroke-linecap="round"/><path d="M147.26789,-26.07089l-4.5045,400.9009" fill="none" stroke="#000000" stroke-width="7" stroke-linecap="round"/><path d="M260.76789,-39.57089l-4.5045,400.9009" fill="none" stroke="#000000" stroke-width="7" stroke-linecap="round"/><path d="M463.76789,-15.32089l-4.5045,400.9009" fill="none" stroke="#000000" stroke-width="7" stroke-linecap="round"/><path d="M524.01339,392.08001l4.5045,-400.9009" fill="none" stroke="#000000" stroke-width="7" stroke-linecap="round"/><path d="M595.01339,366.08001l4.5045,-400.9009" fill="none" stroke="#000000" stroke-width="7" stroke-linecap="round"/><path d="M383.76789,-14.57089l-4.5045,400.9009" fill="none" stroke="#000000" stroke-width="7" stroke-linecap="round"/><path d="M558.69443,-10.34376l-101,83h-282l-95,-83z" fill="#2f2100" stroke="#000000" stroke-width="0" stroke-linecap="butt"/><path d="M28.01338,325.08001l4.5045,-400.9009" fill="none" stroke="#000000" stroke-width="7" stroke-linecap="round"/><path d="M-44.07901,438.93844v-119h686.27344v119z" fill="#2f2100" stroke="none" stroke-width="0" stroke-linecap="butt"/></g></g></svg>