<svg version="1.1" xmlns="http://www.w3.org/2000/svg" xmlns:xlink="http://www.w3.org/1999/xlink" width="74.45016" height="78.10663" viewBox="0,0,74.45016,78.10663"><g transform="translate(-193.45753,-107.28582)"><g stroke="none" stroke-miterlimit="10"><g fill="#ff1212" stroke-width="0"><path d="M224.43597,128.88255v-11.02171h10.65433v11.02172z"/><path d="M224.87924,143.34845v-15.88344h9.53007v15.88344z"/><path d="M224.87924,150.76072v-9.74184h4.87093v9.74184z"/><path d="M229.75016,151.18428v-9.53007h4.44736v9.53007z"/><path d="M220.76689,140.30312l3.29143,-9.16897l2.3919,0.85863l-3.29143,9.16897z"/><path d="M230.18405,134.68685l7.09817,-8.96659l4.31725,3.41764l-7.09818,8.96659z"/></g><path d="M203.33865,162.10068v-54.81486h53.97799v54.81486z" fill="#096b87" stroke-width="0"/><path d="M218.55021,152.62225v-39.00501h23.29537v39.00501z" fill="#4e3f05" stroke-width="0"/><text transform="translate(194.06299,181.44655) scale(0.3758,0.3758)" font-size="40" xml:space="preserve" fill="#ffffff" stroke-width="1" font-family="Pixel" font-weight="normal" text-anchor="start"><tspan x="0" dy="0">Next Roll</tspan></text><path d="M249.11097,132.8891c0,10.63648 -8.46767,19.25904 -18.91307,19.25904c-10.4454,0 -18.91307,-8.62257 -18.91307,-19.25904c0,-10.63648 8.46767,-19.25904 18.91307,-19.25904c10.4454,0 18.91307,8.62257 18.91307,19.25904z" fill="#4e3f05" stroke-width="0"/><path d="M218.89618,152.15599l4.15165,-12.53968l15.33804,0.39186l3.45971,12.40906z" fill="#312c03" stroke-width="0"/><g fill="#ffc212" stroke-width="0"><path d="M228.19439,134.47191v-4.45137h4.10896v4.45137z"/><path d="M228.645,142.82056v-9.72305h3.08765v9.72305z"/><path d="M227.04945,138.80914v-4.45137h5.93516v4.45137z"/></g></g></g></svg>