<svg version="1.1" xmlns="http://www.w3.org/2000/svg" xmlns:xlink="http://www.w3.org/1999/xlink" width="54.93567" height="129.51645" viewBox="0,0,54.93567,129.51645"><g transform="translate(-167.2198,-68.36206)"><g data-paper-data="{&quot;isPaintingLayer&quot;:true}" fill-rule="nonzero" stroke="none" stroke-linecap="butt" stroke-linejoin="miter" stroke-miterlimit="10" stroke-dasharray="" stroke-dashoffset="0" style="mix-blend-mode: normal"><path d="M198.61989,136.32099c-0.49319,0.00281 -0.49599,-0.49037 -0.49599,-0.49037l-0.00059,-0.10308c-0.00639,-1.15092 -0.23934,-1.69286 -0.47464,-2.75317c-0.42264,-1.90449 0.48049,-3.90127 -0.44787,-5.70239c0,0 -0.22056,-0.44112 0.22056,-0.66169c0.44112,-0.22056 0.66169,0.22056 0.66169,0.22056c0.9625,1.97388 0.05205,3.90432 0.52729,5.9241c0.25434,1.08095 0.49247,1.79134 0.49933,2.96696l0.00059,0.10308c0,0 0.00281,0.49319 -0.49037,0.496z" fill="#000000" stroke-width="0.5"/><path d="M167.21981,164.4765v-39.03691h50.31859v39.03691z" fill="#26b700" stroke-width="0"/><path d="M176.10955,197.87851v-102.47189h31.58295v102.47189z" fill="#26b700" stroke-width="0"/><g stroke-width="0"><path d="M172.72341,95.62459v-5.21284h38.46713v5.21284z" fill="#ffffff"/><path d="M175.23995,91.49028v-15.99801h33.07454v15.99801z" fill="#ff0000"/><path d="M200.58512,77.16996v-7.19012h14.73974v7.19012z" fill="#ff0000"/><path d="M222.15547,74.02428c0,3.12716 -2.73626,5.66222 -6.1116,5.66222c-3.37534,0 -6.1116,-2.53506 -6.1116,-5.66222c0,-3.12716 2.73626,-5.66222 6.1116,-5.66222c3.37534,0 6.1116,2.53506 6.1116,5.66222z" fill="#ffffff"/></g></g></g></svg>